<?xml version="1.0" encoding="utf-8"?>
<!-- Generator: Adobe Illustrator 24.1.1, SVG Export Plug-In . SVG Version: 6.00 Build 0)  -->
<svg version="1.1" xmlns="http://www.w3.org/2000/svg" xmlns:xlink="http://www.w3.org/1999/xlink" x="0px" y="0px"
	 viewBox="0 0 3710 3710" style="enable-background:new 0 0 3710 3710;" xml:space="preserve">
<style type="text/css">
	.st0{display:none;}
	.st1{display:inline;}
	.st2{fill:#FFFFFF;}
	.st3{display:none;fill:url(#SVGID_1_);}
	.st4{fill:url(#SVGID_2_);}
	.st5{fill:#91B3FA;}
	.st6{fill:#BDD0FB;}
	.st7{fill:url(#SVGID_3_);}
	.st8{fill:url(#SVGID_4_);}
	.st9{fill:url(#SVGID_5_);}
	.st10{fill:url(#SVGID_6_);}
	.st11{fill:url(#SVGID_7_);}
	.st12{fill:url(#SVGID_8_);}
	.st13{fill:url(#SVGID_9_);}
	.st14{fill:url(#SVGID_10_);}
	.st15{fill:url(#SVGID_11_);}
	.st16{fill:url(#SVGID_12_);}
	.st17{opacity:0.78;fill:#FFFFFF;}
	.st18{fill:url(#SVGID_13_);}
	.st19{fill:url(#SVGID_14_);}
	.st20{fill:url(#SVGID_15_);}
	.st21{fill:url(#SVGID_16_);}
	.st22{fill:url(#SVGID_17_);}
	.st23{fill:url(#SVGID_18_);}
	.st24{fill:url(#SVGID_19_);}
	.st25{fill:url(#SVGID_20_);}
	.st26{fill:url(#SVGID_21_);}
	.st27{fill:url(#SVGID_22_);}
	.st28{opacity:0.54;}
	.st29{fill:url(#SVGID_23_);}
	.st30{fill:url(#SVGID_24_);}
	.st31{fill:url(#SVGID_25_);}
	.st32{fill:url(#SVGID_26_);}
	.st33{fill:url(#SVGID_27_);}
	.st34{fill:url(#SVGID_28_);}
	.st35{fill:url(#SVGID_29_);}
	.st36{fill:url(#SVGID_30_);}
	.st37{fill:url(#SVGID_31_);}
	.st38{fill:url(#SVGID_32_);}
	.st39{fill:url(#SVGID_33_);}
	.st40{fill:url(#SVGID_34_);}
	.st41{fill:url(#SVGID_35_);}
	.st42{fill:url(#SVGID_36_);}
	.st43{fill:url(#SVGID_37_);}
	.st44{fill:url(#SVGID_38_);}
	.st45{fill:url(#SVGID_39_);}
	.st46{fill:url(#SVGID_40_);}
	.st47{fill:url(#SVGID_41_);}
	.st48{fill:url(#SVGID_42_);}
	.st49{fill:url(#SVGID_43_);}
	.st50{fill:url(#SVGID_44_);}
	.st51{fill:url(#SVGID_45_);}
	.st52{fill:url(#SVGID_46_);}
	.st53{fill:url(#SVGID_47_);}
	.st54{fill:url(#SVGID_48_);}
	.st55{fill:url(#SVGID_49_);}
	.st56{fill:url(#SVGID_50_);}
	.st57{fill:url(#SVGID_51_);}
	.st58{fill:url(#SVGID_52_);}
	.st59{fill:url(#SVGID_53_);}
	.st60{fill:url(#SVGID_54_);}
	.st61{fill:url(#SVGID_55_);}
	.st62{fill:url(#SVGID_56_);}
	.st63{fill:url(#SVGID_57_);}
	.st64{fill:url(#SVGID_58_);}
	.st65{fill:url(#SVGID_59_);}
	.st66{fill:url(#SVGID_60_);}
	.st67{fill:url(#SVGID_61_);}
	.st68{fill:url(#SVGID_62_);}
	.st69{fill:url(#SVGID_63_);}
	.st70{fill:url(#SVGID_64_);}
	.st71{fill:url(#SVGID_65_);}
	.st72{fill:url(#SVGID_66_);}
	.st73{fill:url(#SVGID_67_);}
</style>
<g id="Background" class="st0">
	<g class="st1">
		<g>
			<rect class="st2" width="3710" height="3710"/>
		</g>
	</g>
</g>
<g id="Illustration">
	<g>
		<linearGradient id="SVGID_1_" gradientUnits="userSpaceOnUse" x1="3597.387" y1="4058.3943" x2="1121.7261" y2="983.7788">
			<stop  offset="0" style="stop-color:#DAE3FE"/>
			<stop  offset="1" style="stop-color:#E9EFFD"/>
		</linearGradient>
		<path class="st3" d="M2916.3,2845.9c-56.9,59.9-110.7,98.5-153.2,129c-499.7,358.5-1091,254-1216.6,228.5
			c-185.6-37.7-544.3-110.5-803.6-415.5C350.6,2326.5,411.7,1599.6,716,1119.7c55.7-87.8,349.7-574.9,947.4-653
			c361.7-47.3,783.3,48.1,1088.6,303.9C3392.9,1307.5,3347.2,2392.2,2916.3,2845.9z"/>
		<g>
			
				<linearGradient id="SVGID_2_" gradientUnits="userSpaceOnUse" x1="-941.4896" y1="2838.9277" x2="-377.6299" y2="1147.3436" gradientTransform="matrix(-1 0 0 1 1155.7772 0)">
				<stop  offset="0" style="stop-color:#09005D"/>
				<stop  offset="1" style="stop-color:#1A0F91"/>
			</linearGradient>
			<path class="st4" d="M641.3,2900.3c0,24.3,19.9,44.1,44.1,44.1h2387.4c24.3,0,44.1-19.8,44.1-44.1l19.9-1372
				c0-24.3-28.6-71.6-81-68.1l-2333.3-60.4c-30.5-0.8-59.9,10.9-81.5,32.4c-21.6,21.5-33.4,50.9-32.7,81.3L641.3,2900.3z"/>
			<path class="st5" d="M684.9,2858c0,23,18.8,41.8,41.8,41.8h2288.7c23,0,41.8-18.8,41.8-41.8l18.7-1245.5
				c-2.2-75-67.9-101.9-107.8-100.3l-2236.2-60c-21.4-0.6-42.1,7.7-57.3,22.8c-15.2,15.1-23.5,35.8-23,57.2L684.9,2858z"/>
			<g>
				<path class="st6" d="M3032.4,2266.3C3032.4,2266.3,3032.3,2266.3,3032.4,2266.3c-3.5,0-6.2-2.8-6.1-6.2l1.5-101
					c0-3.3,2.8-6,6.1-6c0,0,0.1,0,0.1,0c3.4,0,6.1,2.8,6,6.2l-1.5,101C3038.4,2263.6,3035.7,2266.3,3032.4,2266.3z"/>
				<path class="st6" d="M3036,2018.8C3036,2018.8,3036,2018.8,3036,2018.8c-3.5,0-6.2-2.8-6.1-6.2l5.7-386.9
					c-0.1-23-7.1-41.3-20.7-54.4c-25.5-24.4-65.9-23.2-67.6-23.1l-714.7-19.2c-3.4-0.1-6-2.9-6-6.3c0.1-3.4,2.7-6.3,6.3-6
					l714.3,19.2c4.4-0.3,47.5-1,76.2,26.5c16.1,15.5,24.4,36.8,24.5,63.3l-5.7,387C3042.1,2016.1,3039.4,2018.8,3036,2018.8z"/>
			</g>
			<linearGradient id="SVGID_3_" gradientUnits="userSpaceOnUse" x1="1908.5814" y1="1828.1571" x2="1867.9042" y2="2716.2776">
				<stop  offset="0" style="stop-color:#09005D"/>
				<stop  offset="1" style="stop-color:#1A0F91"/>
			</linearGradient>
			<path class="st7" d="M453.3,3058.3h2803.4c3.1,0,5.7-2.5,5.7-5.7v-109.2c0-3.1-2.5-5.7-5.7-5.7H453.3c-3.1,0-5.7,2.5-5.7,5.7
				v109.2C447.7,3055.7,450.2,3058.3,453.3,3058.3z"/>
		</g>
		<g>
			<g>
				
					<ellipse transform="matrix(0.7071 -0.7071 0.7071 0.7071 -197.9946 2116.3599)" class="st6" cx="2455.7" cy="1297.2" rx="515.1" ry="515.1"/>
				<g>
					<linearGradient id="SVGID_4_" gradientUnits="userSpaceOnUse" x1="3156.2168" y1="388.8509" x2="2052.3984" y2="1820.0735">
						<stop  offset="0" style="stop-color:#4F52FF"/>
						<stop  offset="1" style="stop-color:#4042E2"/>
					</linearGradient>
					<circle class="st8" cx="2455.7" cy="1297.2" r="439.6"/>
					<path class="st2" d="M2455.7,1758.8c-254.5,0-461.6-207.1-461.6-461.6s207.1-461.6,461.6-461.6s461.6,207.1,461.6,461.6
						S2710.2,1758.8,2455.7,1758.8z M2455.7,857.6c-242.4,0-439.6,197.2-439.6,439.6c0,242.4,197.2,439.6,439.6,439.6
						c242.4,0,439.6-197.2,439.6-439.6C2895.3,1054.8,2698.1,857.6,2455.7,857.6z"/>
				</g>
				<g>
					<linearGradient id="SVGID_5_" gradientUnits="userSpaceOnUse" x1="3156.2163" y1="388.8513" x2="2052.3979" y2="1820.0739">
						<stop  offset="0" style="stop-color:#4F52FF"/>
						<stop  offset="1" style="stop-color:#4042E2"/>
					</linearGradient>
					<circle class="st9" cx="2455.7" cy="1297.2" r="268"/>
					<path class="st2" d="M2455.7,1587.2c-159.9,0-290-130.1-290-290s130.1-290,290-290c159.9,0,290,130.1,290,290
						S2615.6,1587.2,2455.7,1587.2z M2455.7,1051.2c-135.6,0-246,110.4-246,246s110.4,246,246,246c135.6,0,246-110.4,246-246
						S2591.3,1051.2,2455.7,1051.2z"/>
				</g>
				<g>
					<linearGradient id="SVGID_6_" gradientUnits="userSpaceOnUse" x1="2624.4387" y1="896.3677" x2="2362.5154" y2="1518.4346">
						<stop  offset="0" style="stop-color:#4F52FF"/>
						<stop  offset="1" style="stop-color:#4042E2"/>
					</linearGradient>
					<circle class="st10" cx="2455.7" cy="1297.2" r="103.8"/>
					<path class="st2" d="M2455.7,1423c-69.4,0-125.9-56.5-125.9-125.9s56.5-125.9,125.9-125.9s125.9,56.5,125.9,125.9
						S2525.1,1423,2455.7,1423z M2455.7,1215.4c-45.1,0-81.8,36.7-81.8,81.8c0,45.1,36.7,81.8,81.8,81.8c45.1,0,81.8-36.7,81.8-81.8
						C2537.5,1252.1,2500.8,1215.4,2455.7,1215.4z"/>
				</g>
			</g>
			<g>
				
					<linearGradient id="SVGID_7_" gradientUnits="userSpaceOnUse" x1="-84.9792" y1="4864.8691" x2="-242.0447" y2="5502.9458" gradientTransform="matrix(-0.7071 -0.7071 0.7071 -0.7071 -1192.2574 4633.1733)">
					<stop  offset="0" style="stop-color:#09005D"/>
					<stop  offset="1" style="stop-color:#1A0F91"/>
				</linearGradient>
				<polygon class="st11" points="3080.1,671.1 3094,685 2568.3,1210.7 2554.4,1196.8 				"/>
				
					<linearGradient id="SVGID_8_" gradientUnits="userSpaceOnUse" x1="18417.168" y1="-28183.8535" x2="18046.0898" y2="-27522.6621" gradientTransform="matrix(-0.7071 -0.7071 0.7071 -0.7071 -1192.2574 4633.1733)">
					<stop  offset="0" style="stop-color:#FF928E"/>
					<stop  offset="1" style="stop-color:#FE7062"/>
				</linearGradient>
				<path class="st12" d="M2564.3,1163.3c8-8,45.5,29.6,37.5,37.5l-139.3,109.5c-5.1,4-11.8-2.6-7.8-7.8L2564.3,1163.3z"/>
				
					<linearGradient id="SVGID_9_" gradientUnits="userSpaceOnUse" x1="18694.3145" y1="-28028.3203" x2="18323.2383" y2="-27367.1289" gradientTransform="matrix(-0.7071 -0.7071 0.7071 -0.7071 -1192.2574 4633.1733)">
					<stop  offset="0" style="stop-color:#FF928E"/>
					<stop  offset="1" style="stop-color:#FE7062"/>
				</linearGradient>
				<path class="st13" d="M3093.7,685.3l70.7,7l-97.1,97.1c-31.8,31.8-76.2,47.7-121,43.2l0,0L3093.7,685.3z"/>
				
					<linearGradient id="SVGID_10_" gradientUnits="userSpaceOnUse" x1="20610.4102" y1="-29391.127" x2="20239.332" y2="-28729.9336" gradientTransform="matrix(0.7071 0.7071 0.7071 -0.7071 -1682.106 4143.3247)">
					<stop  offset="0" style="stop-color:#FF928E"/>
					<stop  offset="1" style="stop-color:#FE7062"/>
				</linearGradient>
				<path class="st14" d="M3079.8,671.4l-7-70.7l-97.1,97.1c-31.8,31.8-47.7,76.2-43.2,121l0,0L3079.8,671.4z"/>
			</g>
		</g>
		<g class="st0">
			<g class="st1">
				<linearGradient id="SVGID_11_" gradientUnits="userSpaceOnUse" x1="1492.2815" y1="881.3128" x2="1671.8711" y2="672.8609">
					<stop  offset="0" style="stop-color:#E1473D"/>
					<stop  offset="1" style="stop-color:#E9605A"/>
				</linearGradient>
				<circle class="st15" cx="1675.5" cy="668.7" r="133.9"/>
				<linearGradient id="SVGID_12_" gradientUnits="userSpaceOnUse" x1="1773.351" y1="520.8235" x2="1242.2996" y2="1323.0907">
					<stop  offset="0" style="stop-color:#FF928E"/>
					<stop  offset="1" style="stop-color:#FE7062"/>
				</linearGradient>
				<circle class="st16" cx="1675.5" cy="668.7" r="129.4"/>
				<path class="st17" d="M1568.8,620.3c-0.8,0-1.7-0.2-2.4-0.6c-2.7-1.4-3.8-4.6-2.4-7.3c21.4-42.4,64.1-68.7,111.6-68.7
					c7.6,0,15.2,0.7,22.5,2c3,0.5,4.9,3.4,4.4,6.3c-0.5,3-3.4,4.9-6.3,4.4c-6.7-1.2-13.7-1.9-20.6-1.9c-43.3,0-82.3,24-101.9,62.7
					C1572.7,619.2,1570.7,620.3,1568.8,620.3z"/>
				
					<ellipse transform="matrix(0.2298 -0.9732 0.9732 0.2298 639.2112 2150.6199)" class="st17" cx="1678.3" cy="671.5" rx="109.6" ry="109.6"/>
				<g>
					<linearGradient id="SVGID_13_" gradientUnits="userSpaceOnUse" x1="1734.3806" y1="372.5411" x2="1670.2856" y2="723.3777">
						<stop  offset="0" style="stop-color:#FF928E"/>
						<stop  offset="1" style="stop-color:#FE7062"/>
					</linearGradient>
					<path class="st18" d="M1667.6,752.9V741c-12.4-0.5-24.7-3.4-33.4-7.3c-3.1-1.4-4.7-4.9-3.8-8.1l3-11.1c1.1-4.1,5.5-6.2,9.4-4.5
						c8.7,3.6,19.3,6.5,30.9,6.5c12,0,20.9-4.1,20.9-12.4c0-7.5-6.9-12-23.5-16.4c-23.7-6.5-40.8-16.8-40.8-37.7
						c0-18.9,13.8-33.3,37.7-37.1v-11.9c0-3.8,3.1-6.9,6.9-6.9h7c3.8,0,6.9,3.1,6.9,6.9v10.7c11.5,0.5,19.9,2.4,26.5,4.8
						c3.4,1.2,5.3,4.9,4.3,8.3l-2.8,10.3c-1.1,4-5.3,6.1-9.1,4.7c-6.1-2.3-14.8-4.7-26-4.7c-14.2,0-18.3,5.9-18.3,11.2
						c0,6.5,8.5,11,27,16.6c26.4,7.9,37.3,18.9,37.3,38.5c0,18.1-13.4,34.3-39.4,38.3v13.3c0,3.8-3.1,6.9-6.9,6.9h-7
						C1670.7,759.9,1667.6,756.8,1667.6,752.9z"/>
				</g>
			</g>
			<g class="st1">
				<linearGradient id="SVGID_14_" gradientUnits="userSpaceOnUse" x1="1368.4237" y1="1583.613" x2="1548.0135" y2="1375.1608">
					<stop  offset="0" style="stop-color:#E1473D"/>
					<stop  offset="1" style="stop-color:#E9605A"/>
				</linearGradient>
				<circle class="st19" cx="1551.6" cy="1371" r="133.9"/>
				<linearGradient id="SVGID_15_" gradientUnits="userSpaceOnUse" x1="1649.4934" y1="1223.1233" x2="1118.4417" y2="2025.391">
					<stop  offset="0" style="stop-color:#FF928E"/>
					<stop  offset="1" style="stop-color:#FE7062"/>
				</linearGradient>
				<circle class="st20" cx="1551.6" cy="1371" r="129.4"/>
				<path class="st17" d="M1444.9,1322.6c-0.8,0-1.7-0.2-2.4-0.6c-2.7-1.4-3.8-4.6-2.4-7.3c21.4-42.4,64.1-68.7,111.6-68.7
					c7.6,0,15.2,0.7,22.5,2c3,0.5,4.9,3.4,4.4,6.3c-0.5,3-3.4,4.9-6.3,4.4c-6.7-1.2-13.7-1.9-20.6-1.9c-43.3,0-82.3,24-101.9,62.7
					C1448.8,1321.5,1446.9,1322.6,1444.9,1322.6z"/>
				
					<ellipse transform="matrix(0.3052 -0.9523 0.9523 0.3052 -228.1606 2434.8337)" class="st17" cx="1554.5" cy="1373.8" rx="109.6" ry="109.6"/>
				<g>
					<linearGradient id="SVGID_16_" gradientUnits="userSpaceOnUse" x1="1643.4128" y1="1087.8802" x2="1525.343" y2="1475.8242">
						<stop  offset="0" style="stop-color:#FF928E"/>
						<stop  offset="1" style="stop-color:#FE7062"/>
					</linearGradient>
					<path class="st21" d="M1543.7,1455.2v-11.9c-12.4-0.5-24.7-3.4-33.4-7.3c-3.1-1.4-4.7-4.9-3.8-8.1l3-11.1
						c1.1-4.1,5.5-6.2,9.4-4.5c8.7,3.6,19.3,6.5,30.9,6.5c12,0,20.9-4.1,20.9-12.4c0-7.5-6.9-12-23.5-16.4
						c-23.7-6.5-40.8-16.8-40.8-37.7c0-18.9,13.8-33.3,37.7-37.1v-11.9c0-3.8,3.1-6.9,6.9-6.9h7c3.8,0,6.9,3.1,6.9,6.9v10.7
						c11.5,0.5,19.9,2.4,26.5,4.8c3.4,1.2,5.3,4.9,4.3,8.3l-2.8,10.3c-1.1,4-5.3,6.1-9.1,4.7c-6.1-2.3-14.8-4.7-26-4.7
						c-14.2,0-18.3,5.9-18.3,11.2c0,6.5,8.5,11,27,16.6c26.4,7.9,37.3,18.9,37.3,38.5c0,18.1-13.4,34.3-39.4,38.3v13.3
						c0,3.8-3.1,6.9-6.9,6.9h-7C1546.8,1462.2,1543.7,1459,1543.7,1455.2z"/>
				</g>
			</g>
			<g class="st1">
				<linearGradient id="SVGID_17_" gradientUnits="userSpaceOnUse" x1="1063.1797" y1="1319.1106" x2="1343.752" y2="993.4467">
					<stop  offset="0" style="stop-color:#E1473D"/>
					<stop  offset="1" style="stop-color:#E9605A"/>
				</linearGradient>
				<circle class="st22" cx="1349.4" cy="986.9" r="209.2"/>
				<linearGradient id="SVGID_18_" gradientUnits="userSpaceOnUse" x1="1502.2937" y1="755.9189" x2="672.6335" y2="2009.2991">
					<stop  offset="0" style="stop-color:#FF928E"/>
					<stop  offset="1" style="stop-color:#FE7062"/>
				</linearGradient>
				<circle class="st23" cx="1349.4" cy="986.9" r="202.2"/>
				<path class="st17" d="M1182.7,907.7c-0.7,0-1.5-0.2-2.2-0.5c-2.4-1.2-3.4-4.1-2.2-6.6c32.8-65,98.4-105.4,171.1-105.4
					c11.6,0,23.2,1,34.6,3.1c2.7,0.5,4.4,3,3.9,5.7c-0.5,2.7-3,4.4-5.7,3.9c-10.7-2-21.8-3-32.8-3c-69,0-131.3,38.3-162.4,100
					C1186.2,906.8,1184.5,907.7,1182.7,907.7z"/>
				
					<ellipse transform="matrix(0.7071 -0.7071 0.7071 0.7071 -304.4107 1247.6368)" class="st17" cx="1353.8" cy="991.3" rx="171.2" ry="171.2"/>
				<g>
					<linearGradient id="SVGID_19_" gradientUnits="userSpaceOnUse" x1="1504.7731" y1="542.4299" x2="1325.9807" y2="1085.5524">
						<stop  offset="0" style="stop-color:#FF928E"/>
						<stop  offset="1" style="stop-color:#FE7062"/>
					</linearGradient>
					<path class="st24" d="M1337,1118.5v-18.6c-19.4-0.8-38.6-5.4-52.2-11.3c-4.9-2.1-7.4-7.6-6-12.7l4.7-17.3
						c1.7-6.4,8.7-9.7,14.7-7.1c13.5,5.7,30.2,10.2,48.2,10.2c18.7,0,32.6-6.3,32.6-19.3c0-11.7-10.8-18.7-36.8-25.7
						c-37.1-10.1-63.7-26.3-63.7-58.9c0-29.5,21.6-52,58.9-58V881c0-6,4.9-10.9,10.8-10.9h10.9c6,0,10.8,4.9,10.8,10.9v16.7
						c18,0.7,31,3.8,41.4,7.4c5.3,1.9,8.2,7.6,6.7,13l-4.4,16c-1.7,6.2-8.3,9.6-14.3,7.3c-9.6-3.6-23.1-7.4-40.6-7.4
						c-22.2,0-28.5,9.2-28.5,17.4c0,10.1,13.3,17.1,42.1,26c41.2,12.4,58.3,29.5,58.3,60.2c0,28.2-20.9,53.6-61.5,59.9v20.8
						c0,6-4.9,10.8-10.8,10.8h-10.9C1341.9,1129.4,1337,1124.5,1337,1118.5z"/>
				</g>
			</g>
			<g class="st1">
				<linearGradient id="SVGID_20_" gradientUnits="userSpaceOnUse" x1="1580.7217" y1="1335.3274" x2="1793.4441" y2="1088.4178">
					<stop  offset="0" style="stop-color:#E1473D"/>
					<stop  offset="1" style="stop-color:#E9605A"/>
				</linearGradient>
				<circle class="st25" cx="1797.7" cy="1083.4" r="158.6"/>
				<linearGradient id="SVGID_21_" gradientUnits="userSpaceOnUse" x1="1913.6459" y1="908.3309" x2="1284.6205" y2="1858.609">
					<stop  offset="0" style="stop-color:#FF928E"/>
					<stop  offset="1" style="stop-color:#FE7062"/>
				</linearGradient>
				<circle class="st26" cx="1797.7" cy="1083.4" r="153.3"/>
				<path class="st17" d="M1671.3,1024.6c-0.7,0-1.5-0.2-2.2-0.5c-2.4-1.2-3.4-4.2-2.2-6.6c25.1-49.7,75.2-80.5,130.8-80.5
					c8.9,0,17.8,0.8,26.4,2.4c2.7,0.5,4.4,3,3.9,5.7c-0.5,2.7-3,4.4-5.7,3.9c-8.1-1.5-16.4-2.2-24.7-2.2c-51.9,0-98.6,28.8-122,75.1
					C1674.8,1023.7,1673.1,1024.6,1671.3,1024.6z"/>
				
					<ellipse transform="matrix(0.7071 -0.7071 0.7071 0.7071 -240.9387 1591.8646)" class="st17" cx="1801.1" cy="1086.8" rx="129.8" ry="129.8"/>
				<g>
					<linearGradient id="SVGID_22_" gradientUnits="userSpaceOnUse" x1="1904.2634" y1="793.8477" x2="1755.8328" y2="1225.6462">
						<stop  offset="0" style="stop-color:#FF928E"/>
						<stop  offset="1" style="stop-color:#FE7062"/>
					</linearGradient>
					<path class="st27" d="M1788.3,1183.2v-14.1c-14.7-0.6-29.3-4.1-39.6-8.6c-3.7-1.6-5.6-5.8-4.5-9.6l3.6-13.2
						c1.3-4.8,6.6-7.3,11.2-5.4c10.3,4.3,22.9,7.7,36.6,7.7c14.2,0,24.7-4.8,24.7-14.7c0-8.9-8.2-14.2-27.9-19.5
						c-28.1-7.7-48.3-19.9-48.3-44.7c0-22.3,16.3-39.4,44.7-44v-14.1c0-4.5,3.7-8.2,8.2-8.2h8.3c4.5,0,8.2,3.7,8.2,8.2v12.7
						c13.6,0.5,23.5,2.9,31.4,5.6c4,1.4,6.2,5.8,5.1,9.9l-3.3,12.2c-1.3,4.7-6.3,7.3-10.8,5.5c-7.2-2.7-17.5-5.6-30.8-5.6
						c-16.8,0-21.6,7-21.6,13.2c0,7.7,10.1,13,32,19.7c31.2,9.4,44.2,22.3,44.2,45.6c0,21.4-15.9,40.6-46.6,45.4v15.8
						c0,4.5-3.7,8.2-8.2,8.2h-8.3C1792,1191.5,1788.3,1187.8,1788.3,1183.2z"/>
				</g>
			</g>
		</g>
		<g class="st28">
			
				<rect x="2874.6" y="2361.4" transform="matrix(-1 -1.224647e-16 1.224647e-16 -1 5862.0273 5233.8154)" class="st2" width="112.9" height="511.1"/>
			
				<rect x="2685.9" y="2537" transform="matrix(-1 -1.224647e-16 1.224647e-16 -1 5484.6948 5409.457)" class="st2" width="112.9" height="335.4"/>
			
				<rect x="2497.2" y="2102.9" transform="matrix(-1 -1.224647e-16 1.224647e-16 -1 5107.3579 4975.3687)" class="st2" width="112.9" height="769.5"/>
			
				<rect x="2308.6" y="2687.6" transform="matrix(-1 -1.224647e-16 1.224647e-16 -1 4730.0225 5560.0078)" class="st2" width="112.9" height="184.9"/>
			
				<rect x="2119.9" y="2205.8" transform="matrix(-1 -1.224647e-16 1.224647e-16 -1 4352.6885 5078.2461)" class="st2" width="112.9" height="666.6"/>
			
				<rect x="1931.2" y="2321.2" transform="matrix(-1 -1.224647e-16 1.224647e-16 -1 3975.3533 5193.668)" class="st2" width="112.9" height="551.2"/>
			
				<rect x="1742.6" y="2446.7" transform="matrix(-1 -1.224647e-16 1.224647e-16 -1 3598.0181 5319.1279)" class="st2" width="112.9" height="425.7"/>
			
				<rect x="1553.9" y="1947.4" transform="matrix(-1 -1.224647e-16 1.224647e-16 -1 3220.6841 4819.7993)" class="st2" width="112.9" height="925.1"/>
			
				<rect x="1365.2" y="2045.2" transform="matrix(-1 -1.224647e-16 1.224647e-16 -1 2843.3501 4917.6587)" class="st2" width="112.9" height="827.2"/>
			
				<rect x="1176.5" y="2193.3" transform="matrix(-1 -1.224647e-16 1.224647e-16 -1 2466.0134 5065.7007)" class="st2" width="112.9" height="679.2"/>
			
				<rect x="987.9" y="2704.7" transform="matrix(-1 -1.224647e-16 1.224647e-16 -1 2088.6794 5577.1655)" class="st2" width="112.9" height="167.7"/>
			
				<rect x="799.2" y="2378.9" transform="matrix(-1 -1.224647e-16 1.224647e-16 -1 1711.3441 5251.3794)" class="st2" width="112.9" height="493.5"/>
		</g>
		<g>
			<g>
				<g>
					<linearGradient id="SVGID_23_" gradientUnits="userSpaceOnUse" x1="1820.0126" y1="1760.6819" x2="1473.5278" y2="1847.7385">
						<stop  offset="0" style="stop-color:#FEBBBA"/>
						<stop  offset="1" style="stop-color:#FF928E"/>
					</linearGradient>
					<path class="st29" d="M1494.1,1824.2c0,0-16.2-42.6-35.1-38.7c-18.9,3.9-39.6,18.4-39.6,18.4l-30.4,41.1
						c0,0,85.3,33.6,115.4,14.4c0,0,87.2,15.1,197.2-3c-15.9-33.6-25.4-67.3-31-93.5C1614.8,1794.5,1554.7,1818.1,1494.1,1824.2z"/>
					<linearGradient id="SVGID_24_" gradientUnits="userSpaceOnUse" x1="2301.0708" y1="1118.9325" x2="1811.9226" y2="1756.5111">
						<stop  offset="0" style="stop-color:#FF928E"/>
						<stop  offset="1" style="stop-color:#FE7062"/>
					</linearGradient>
					<path class="st30" d="M1955.8,1514.9c0,0-124.8,157.2-285.3,248c5.6,26.1,15.1,59.8,31,93.5c83.3-13.7,179.6-46.3,261.3-118.7
						L1955.8,1514.9z"/>
				</g>
				<linearGradient id="SVGID_25_" gradientUnits="userSpaceOnUse" x1="2553.6963" y1="1312.7465" x2="2064.5496" y2="1950.3234">
					<stop  offset="0" style="stop-color:#FF928E"/>
					<stop  offset="1" style="stop-color:#FE7062"/>
				</linearGradient>
				<path class="st31" d="M2111.5,2211.6c-24.4-115.9-48.8-183-130.5-402.8c-25.7-69.2-49.1-139.1-37.8-212l12.7-81.9
					c0,0,158.8-53.7,334.9-2.3c0,0,240.2,104.3,77,619.7C2294.2,2214.6,2208.1,2238,2111.5,2211.6z"/>
				
					<linearGradient id="SVGID_26_" gradientUnits="userSpaceOnUse" x1="778.6968" y1="1442.7937" x2="728.5695" y2="1292.4114" gradientTransform="matrix(1 0 0 1 1290.1023 0)">
					<stop  offset="0" style="stop-color:#FEBBBA"/>
					<stop  offset="1" style="stop-color:#FF928E"/>
				</linearGradient>
				<path class="st32" d="M1982.9,1410.4l41.2,98.9c2.6,6.2,8.2,10.7,14.9,11.8c23.7,4.1,81.2,10.4,118.9-14.4
					c4.5-3,5.6-9.1,2.6-13.5l-76.1-109.2L1982.9,1410.4z"/>
				<g>
					<linearGradient id="SVGID_27_" gradientUnits="userSpaceOnUse" x1="1971.2755" y1="1316.9451" x2="2151.4431" y2="1395.2789">
						<stop  offset="0" style="stop-color:#FEBBBA"/>
						<stop  offset="1" style="stop-color:#FF928E"/>
					</linearGradient>
					<path class="st33" d="M2025.4,1259c-1.7,1.6-73,141.6-73,141.6l80.8,39l87.3-122.6C2120.5,1317,2054.4,1231.8,2025.4,1259z"/>
					
						<linearGradient id="SVGID_28_" gradientUnits="userSpaceOnUse" x1="5191.1064" y1="5669.3271" x2="5406.3286" y2="5669.3271" gradientTransform="matrix(-0.6854 -0.7281 -0.7281 0.6854 9787.373 1318.7853)">
						<stop  offset="0" style="stop-color:#09005D"/>
						<stop  offset="1" style="stop-color:#1A0F91"/>
					</linearGradient>
					<path class="st34" d="M2083.8,1331.7l-40.3,67.2c-0.6,1-1.3,1.9-2.2,2.7c-4.8,4.5-21.2,17.4-33.9-0.2
						c-10.8-15.1-21-28.8-31.8-34.4c-6.3-3.3-14.2-0.7-17.4,5.7c-6.6,13.2-19.5,40-27.6,65.4c-2,6.4,1.3,13.2,7.5,15.7
						c16.4,6.6,48.7,18.6,77.4,22.6c4.7,0.7,9.4-1.3,12.2-5.2c12.3-16.9,47.1-64.2,59-76c11-11,31.4-6.8,40.6-4.2
						c3.5,1,7.2,0.5,10.3-1.3c9.3-5.6,25.5-19.6,10.7-43.2c-3.7-5.9-1.8-13.7,4-17.5c10.4-6.8,21.7-19.7,10.9-40.4
						c-10.9-21-30.3-22.9-43.5-21.3c-5.9,0.7-11.8-2.4-14-7.8c-1-2.4-3-4.5-6.6-5.2c-6.9-1.4-11.5-7.7-10.1-14.7
						c2.3-11.9,0.6-27.4-18.4-37.8c-34.9-19.2-65.4,12.1-73.1,38.4c-7.8,26.4,31.2,45,55.7,48.1c18,2.3,27.9,21.9,31.8,32.2
						C2086.2,1324.1,2085.8,1328.3,2083.8,1331.7z"/>
					<linearGradient id="SVGID_29_" gradientUnits="userSpaceOnUse" x1="1960.0485" y1="1342.7672" x2="2140.2158" y2="1421.101">
						<stop  offset="0" style="stop-color:#FEBBBA"/>
						<stop  offset="1" style="stop-color:#FF928E"/>
					</linearGradient>
					<path class="st35" d="M2069.6,1415.3c0,0,17.3-40.8,37.2-39.1c19.8,1.7,35.4,21.4,10.9,43.6
						C2087.1,1447.5,2069.6,1415.3,2069.6,1415.3z"/>
				</g>
				<g>
					
						<linearGradient id="SVGID_30_" gradientUnits="userSpaceOnUse" x1="2440.3481" y1="3244.1694" x2="2664.2571" y2="3244.1694" gradientTransform="matrix(-1 0 0 1 4753.7588 0)">
						<stop  offset="0" style="stop-color:#09005D"/>
						<stop  offset="1" style="stop-color:#1A0F91"/>
					</linearGradient>
					<path class="st36" d="M2095.8,3233.3c38.4,3.3,104.9,8.7,157.4,11c31.5,1.4,49.7-1.7,60.2-5.9c0,1.2-0.1,2.3-0.1,3.3
						c-0.2,5.5-4.7,9.9-10.3,10.3c-99.2,5.5-178,1.9-206.1,0.2c-5.8-0.4-9.3-6.7-6.3-11.6
						C2092.1,3238.2,2093.9,3235.7,2095.8,3233.3z"/>
					<linearGradient id="SVGID_31_" gradientUnits="userSpaceOnUse" x1="2853.8596" y1="3034.6819" x2="2043.106" y2="3265.7656">
						<stop  offset="0" style="stop-color:#4F52FF"/>
						<stop  offset="1" style="stop-color:#4042E2"/>
					</linearGradient>
					<path class="st37" d="M2253.2,3244.4c-52.5-2.3-119.1-7.7-157.4-11c37.7-46.3,157.4-77.5,157.4-77.5h33.8
						c23.3,33.5,26.6,65.4,26.4,82.6C2302.9,3242.6,2284.8,3245.7,2253.2,3244.4z"/>
					
						<linearGradient id="SVGID_32_" gradientUnits="userSpaceOnUse" x1="2461.0198" y1="3139.0195" x2="2524.0911" y2="3139.0195" gradientTransform="matrix(-1 0 0 1 4753.7588 0)">
						<stop  offset="0" style="stop-color:#FEBBBA"/>
						<stop  offset="1" style="stop-color:#FF928E"/>
					</linearGradient>
					<path class="st38" d="M2292.7,3100.7l-3.2,62.6c-0.3,6.8-5.4,12.5-12.2,13.4c-6.8,1-15.8,1.1-25.4-2.1c-5.9-2-10.3-6.9-11.4-13
						l-10.9-60.9H2292.7z"/>
				</g>
				<g>
					<g>
						
							<linearGradient id="SVGID_33_" gradientUnits="userSpaceOnUse" x1="1993.9667" y1="3239.3406" x2="2079.7717" y2="3239.3406" gradientTransform="matrix(-1 0 0 1 4753.7588 0)">
							<stop  offset="0" style="stop-color:#09005D"/>
							<stop  offset="1" style="stop-color:#1A0F91"/>
						</linearGradient>
						<path class="st39" d="M2731.9,3243.9c16.6-2.3,24.2-11,27.3-20.2c0,0.1,0,0.2,0.1,0.2c2.4,9.7-3.2,19.8-14.6,24.6
							c-13.7,5.8-28.7,6.8-40.3,6.3c-12.5-0.5-23.9-5.7-30.2-13.9l-0.1-0.1C2686.5,3247,2704.1,3247.8,2731.9,3243.9z"/>
						<linearGradient id="SVGID_34_" gradientUnits="userSpaceOnUse" x1="2401.8777" y1="2987.7139" x2="2907.1296" y2="3316.7153">
							<stop  offset="0" style="stop-color:#4F52FF"/>
							<stop  offset="1" style="stop-color:#4042E2"/>
						</linearGradient>
						<path class="st40" d="M2653.4,3100.3h27.9c42.5-0.9,69.1,88.7,77.9,123.4c-3.2,9.2-10.7,17.9-27.3,20.2
							c-27.7,3.9-45.3,3.1-57.9-3.1c-22.9-30.2-34.3-74.4-39.8-100.2C2628,3111.3,2653.4,3100.3,2653.4,3100.3z"/>
					</g>
					
						<linearGradient id="SVGID_35_" gradientUnits="userSpaceOnUse" x1="2060.0554" y1="3086.4419" x2="2135.4309" y2="3086.4419" gradientTransform="matrix(-1 0 0 1 4753.7588 0)">
						<stop  offset="0" style="stop-color:#FEBBBA"/>
						<stop  offset="1" style="stop-color:#FF928E"/>
					</linearGradient>
					<path class="st41" d="M2677.7,3042.2l15.5,61.6c1.9,7.5-1.7,15.4-8.7,18.9c-8.7,4.4-20.9,9.1-32.1,7.8
						c-5.3-0.6-9.6-4.3-11.4-9.3l-22.7-64.8L2677.7,3042.2z"/>
				</g>
				
					<linearGradient id="SVGID_36_" gradientUnits="userSpaceOnUse" x1="-283.5757" y1="3197.1157" x2="866.5901" y2="1606.9564" gradientTransform="matrix(-1 0 0 1 2420.7585 0)">
					<stop  offset="0" style="stop-color:#09005D"/>
					<stop  offset="1" style="stop-color:#1A0F91"/>
				</linearGradient>
				<path class="st42" d="M2696.2,3060c-19.3,17.1-81.9,19.3-81.9,19.3c-225.7-541.6-319.8-690.8-319.8-690.8
					c32.6,204.4,7,729.2,7,729.2c-37.2,16.4-85.3,0-85.3,0c-3-334.7-50.1-694.3-110.9-924.5c152.5-3.4,235.4-36.7,261.9-57.6
					C2494.4,2340.7,2696.2,3060,2696.2,3060z"/>
				<g>
					
						<linearGradient id="SVGID_37_" gradientUnits="userSpaceOnUse" x1="-21.8076" y1="3753.2349" x2="-28.8022" y2="3107.3889" gradientTransform="matrix(0.9919 -0.127 0.127 0.9919 1989.9969 -609.5969)">
						<stop  offset="0" style="stop-color:#4F52FF"/>
						<stop  offset="1" style="stop-color:#4042E2"/>
					</linearGradient>
					<path class="st43" d="M2066.9,2344.7l28.1,174.6c4.9,30.4,33.1,51.6,63.8,47.8l420.1-51.2c20.6-2.5,36.1-19.7,36.5-40.3
						c0.9-45.1-0.9-125.4-19.8-198.5L2066.9,2344.7z"/>
					<path class="st2" d="M2162.3,2556.2c-0.6,0-1.1-0.5-1.2-1.1c0-0.6,0.5-1.2,1.1-1.2c1.6-0.1,3.2-0.2,4.8-0.4l4.3-0.5
						c0.7-0.1,1.2,0.4,1.3,1c0.1,0.6-0.4,1.2-1,1.3l-4.3,0.5C2165.7,2556,2164,2556.1,2162.3,2556.2
						C2162.3,2556.2,2162.3,2556.2,2162.3,2556.2z M2193,2552.7c-0.6,0-1.1-0.4-1.1-1c-0.1-0.6,0.4-1.2,1-1.3l9.2-1.1
						c0.7-0.1,1.2,0.4,1.3,1c0.1,0.6-0.4,1.2-1,1.3l-9.2,1.1C2193.1,2552.7,2193.1,2552.7,2193,2552.7z M2141.1,2552.7
						c-0.1,0-0.3,0-0.4-0.1c-2.9-1.1-5.8-2.5-8.5-4.1c-0.6-0.3-0.7-1-0.4-1.6c0.3-0.6,1-0.7,1.6-0.4c2.6,1.5,5.4,2.9,8.2,3.9
						c0.6,0.2,0.9,0.9,0.7,1.5C2142,2552.4,2141.6,2552.7,2141.1,2552.7z M2223.7,2548.9c-0.6,0-1.1-0.4-1.1-1
						c-0.1-0.6,0.4-1.2,1-1.3l9.2-1.1c0.7-0.1,1.2,0.4,1.3,1c0.1,0.6-0.4,1.2-1,1.3l-9.2,1.1
						C2223.8,2548.9,2223.7,2548.9,2223.7,2548.9z M2254.4,2545.2c-0.6,0-1.1-0.4-1.1-1c-0.1-0.6,0.4-1.2,1-1.3l9.2-1.1
						c0.7-0.1,1.2,0.4,1.3,1c0.1,0.6-0.4,1.2-1,1.3l-9.2,1.1C2254.4,2545.2,2254.4,2545.2,2254.4,2545.2z M2285,2541.4
						c-0.6,0-1.1-0.4-1.1-1c-0.1-0.6,0.4-1.2,1-1.3l9.2-1.1c0.7-0.1,1.2,0.4,1.3,1c0.1,0.6-0.4,1.2-1,1.3l-9.2,1.1
						C2285.1,2541.4,2285.1,2541.4,2285,2541.4z M2315.7,2537.7c-0.6,0-1.1-0.4-1.1-1c-0.1-0.6,0.4-1.2,1-1.3l9.2-1.1
						c0.7-0.1,1.2,0.4,1.3,1c0.1,0.6-0.4,1.2-1,1.3l-9.2,1.1C2315.8,2537.7,2315.7,2537.7,2315.7,2537.7z M2116.7,2534.4
						c-0.3,0-0.7-0.2-0.9-0.5c-1.9-2.5-3.6-5.2-5-8c-0.3-0.6-0.1-1.3,0.5-1.6c0.6-0.3,1.3-0.1,1.6,0.5c1.4,2.7,3,5.3,4.8,7.7
						c0.4,0.5,0.3,1.2-0.2,1.6C2117.2,2534.3,2117,2534.4,2116.7,2534.4z M2346.4,2534c-0.6,0-1.1-0.4-1.1-1c-0.1-0.6,0.4-1.2,1-1.3
						l9.2-1.1c0.7-0.1,1.2,0.4,1.3,1c0.1,0.6-0.4,1.2-1,1.3l-9.2,1.1C2346.5,2534,2346.4,2534,2346.4,2534z M2377,2530.2
						c-0.6,0-1.1-0.4-1.1-1c-0.1-0.6,0.4-1.2,1-1.3l9.2-1.1c0.7-0.1,1.2,0.4,1.3,1c0.1,0.6-0.4,1.2-1,1.3l-9.2,1.1
						C2377.1,2530.2,2377.1,2530.2,2377,2530.2z M2407.7,2526.5c-0.6,0-1.1-0.4-1.1-1c-0.1-0.6,0.4-1.2,1-1.3l9.2-1.1
						c0.7-0.1,1.2,0.4,1.3,1c0.1,0.6-0.4,1.2-1,1.3l-9.2,1.1C2407.8,2526.5,2407.8,2526.5,2407.7,2526.5z M2438.4,2522.7
						c-0.6,0-1.1-0.4-1.1-1c-0.1-0.6,0.4-1.2,1-1.3l9.2-1.1c0.7-0.1,1.2,0.4,1.3,1c0.1,0.6-0.4,1.2-1,1.3l-9.2,1.1
						C2438.5,2522.7,2438.4,2522.7,2438.4,2522.7z M2469,2519c-0.6,0-1.1-0.4-1.1-1c-0.1-0.6,0.4-1.2,1-1.3l9.2-1.1
						c0.7-0.1,1.2,0.4,1.3,1c0.1,0.6-0.4,1.2-1,1.3l-9.2,1.1C2469.1,2519,2469.1,2519,2469,2519z M2499.7,2515.3
						c-0.6,0-1.1-0.4-1.1-1c-0.1-0.6,0.4-1.2,1-1.3l9.2-1.1c0.7-0.1,1.2,0.4,1.3,1c0.1,0.6-0.4,1.2-1,1.3l-9.2,1.1
						C2499.8,2515.3,2499.8,2515.3,2499.7,2515.3z M2530.4,2511.5c-0.6,0-1.1-0.4-1.1-1c-0.1-0.6,0.4-1.2,1-1.3l9.2-1.1
						c0.7-0.1,1.2,0.4,1.3,1c0.1,0.6-0.4,1.2-1,1.3l-9.2,1.1C2530.5,2511.5,2530.4,2511.5,2530.4,2511.5z M2561.1,2507.8
						c-0.6,0-1.1-0.4-1.1-1c-0.1-0.6,0.4-1.2,1-1.3l6-0.7c1.1-0.1,2.1-0.3,3.1-0.5c0.6-0.1,1.2,0.3,1.4,0.9c0.1,0.6-0.3,1.2-0.9,1.4
						c-1.1,0.2-2.2,0.4-3.3,0.5l-6,0.7C2561.2,2507.8,2561.1,2507.8,2561.1,2507.8z M2105.8,2505.9c-0.6,0-1.1-0.4-1.1-1l-1.5-9.2
						c-0.1-0.6,0.3-1.2,1-1.3c0.6-0.1,1.2,0.3,1.3,1l1.5,9.2c0.1,0.6-0.3,1.2-1,1.3C2105.9,2505.9,2105.9,2505.9,2105.8,2505.9z
						 M2589.2,2496.8c-0.3,0-0.6-0.1-0.9-0.4c-0.4-0.5-0.4-1.2,0.1-1.6c2.2-2,4.2-4.3,5.8-6.8c0.3-0.5,1.1-0.7,1.6-0.3
						c0.5,0.4,0.7,1.1,0.3,1.6c-1.8,2.6-3.8,5.1-6.2,7.2C2589.8,2496.7,2589.5,2496.8,2589.2,2496.8z M2100.9,2475.4
						c-0.6,0-1.1-0.4-1.1-1l-1.5-9.2c-0.1-0.6,0.3-1.2,1-1.3c0.7-0.1,1.2,0.3,1.3,1l1.5,9.2c0.1,0.6-0.3,1.2-1,1.3
						C2101,2475.4,2101,2475.4,2100.9,2475.4z M2601.8,2469.4C2601.8,2469.4,2601.8,2469.4,2601.8,2469.4c-0.7,0-1.2-0.6-1.2-1.2
						l0-0.6c0.1-2.7,0.1-5.6,0.1-8.6c0-0.6,0.5-1.1,1.2-1.1c0,0,0,0,0,0c0.6,0,1.2,0.5,1.1,1.2c0,3-0.1,5.9-0.1,8.6
						c0,0.2,0,0.5,0,0.7C2602.9,2468.9,2602.4,2469.4,2601.8,2469.4z M2096,2444.9c-0.6,0-1.1-0.4-1.1-1l-1.5-9.2
						c-0.1-0.6,0.3-1.2,1-1.3c0.6-0.1,1.2,0.3,1.3,1l1.5,9.2c0.1,0.6-0.3,1.2-1,1.3C2096.1,2444.9,2096.1,2444.9,2096,2444.9z
						 M2601.9,2438.5c-0.6,0-1.1-0.5-1.2-1.1c0-3-0.1-6.1-0.2-9.3c0-0.6,0.5-1.2,1.1-1.2c0,0,0,0,0,0c0.6,0,1.1,0.5,1.2,1.1
						c0.1,3.2,0.1,6.3,0.2,9.3C2603.1,2438,2602.6,2438.5,2601.9,2438.5C2601.9,2438.5,2601.9,2438.5,2601.9,2438.5z M2091.1,2414.3
						c-0.6,0-1.1-0.4-1.1-1l-1.5-9.2c-0.1-0.6,0.3-1.2,1-1.3c0.6-0.1,1.2,0.3,1.3,1l1.5,9.2c0.1,0.6-0.3,1.2-1,1.3
						C2091.2,2414.3,2091.2,2414.3,2091.1,2414.3z M2600.9,2407.6c-0.6,0-1.1-0.5-1.2-1.1c-0.1-3-0.3-6.1-0.5-9.2
						c0-0.6,0.4-1.2,1.1-1.2c0.6-0.1,1.2,0.4,1.2,1.1c0.2,3.1,0.4,6.2,0.5,9.3C2602.1,2407,2601.6,2407.6,2600.9,2407.6
						C2601,2407.6,2601,2407.6,2600.9,2407.6z M2086.2,2383.8c-0.6,0-1.1-0.4-1.1-1l-1.5-9.2c-0.1-0.6,0.3-1.2,1-1.3
						c0.7-0.1,1.2,0.3,1.3,1l1.5,9.2c0.1,0.6-0.3,1.2-1,1.3C2086.3,2383.8,2086.2,2383.8,2086.2,2383.8z M2598.9,2376.8
						c-0.6,0-1.1-0.5-1.2-1.1c-0.3-3-0.6-6.1-0.9-9.2c-0.1-0.6,0.4-1.2,1-1.3c0.7,0,1.2,0.4,1.3,1c0.3,3.1,0.6,6.2,0.9,9.2
						c0.1,0.6-0.4,1.2-1.1,1.3C2598.9,2376.8,2598.9,2376.8,2598.9,2376.8z M2081.3,2353.3c-0.6,0-1.1-0.4-1.1-1l-1.5-9.2
						c-0.1-0.6,0.3-1.2,1-1.3c0.6-0.1,1.2,0.3,1.3,1l1.5,9.2c0.1,0.6-0.3,1.2-1,1.3C2081.4,2353.3,2081.3,2353.3,2081.3,2353.3z
						 M2595.5,2346.1c-0.6,0-1.1-0.4-1.1-1c-0.4-3-0.8-6.1-1.3-9.2c-0.1-0.6,0.3-1.2,1-1.3c0.7-0.1,1.2,0.3,1.3,1
						c0.4,3.1,0.9,6.1,1.3,9.2c0.1,0.6-0.4,1.2-1,1.3C2595.6,2346.1,2595.6,2346.1,2595.5,2346.1z M2089,2343c-0.6,0-1.1-0.4-1.1-1
						c-0.1-0.6,0.4-1.2,1-1.3l9.2-1.2c0.7-0.1,1.2,0.4,1.3,1c0.1,0.6-0.4,1.2-1,1.3l-9.2,1.2C2089.1,2343,2089.1,2343,2089,2343z
						 M2119.7,2339.1c-0.6,0-1.1-0.4-1.1-1c-0.1-0.6,0.4-1.2,1-1.3l9.2-1.2c0.7-0.1,1.2,0.4,1.3,1c0.1,0.6-0.4,1.2-1,1.3l-9.2,1.2
						C2119.8,2339.1,2119.7,2339.1,2119.7,2339.1z M2150.3,2335.2c-0.6,0-1.1-0.4-1.1-1c-0.1-0.6,0.4-1.2,1-1.3l9.2-1.2
						c0.7-0.1,1.2,0.4,1.3,1c0.1,0.6-0.4,1.2-1,1.3l-9.2,1.2C2150.4,2335.2,2150.4,2335.2,2150.3,2335.2z M2181,2331.2
						c-0.6,0-1.1-0.4-1.1-1c-0.1-0.6,0.4-1.2,1-1.3l9.2-1.2c0.7-0.1,1.2,0.4,1.3,1c0.1,0.6-0.4,1.2-1,1.3l-9.2,1.2
						C2181.1,2331.2,2181,2331.2,2181,2331.2z M2211.6,2327.3c-0.6,0-1.1-0.4-1.1-1c-0.1-0.6,0.4-1.2,1-1.3l9.2-1.2
						c0.7-0.1,1.2,0.4,1.3,1c0.1,0.6-0.4,1.2-1,1.3l-9.2,1.2C2211.7,2327.3,2211.7,2327.3,2211.6,2327.3z M2242.3,2323.4
						c-0.6,0-1.1-0.4-1.1-1c-0.1-0.6,0.4-1.2,1-1.3l9.2-1.2c0.7-0.1,1.2,0.4,1.3,1c0.1,0.6-0.4,1.2-1,1.3l-9.2,1.2
						C2242.4,2323.4,2242.3,2323.4,2242.3,2323.4z M2272.9,2319.5c-0.6,0-1.1-0.4-1.1-1c-0.1-0.6,0.4-1.2,1-1.3l9.2-1.2
						c0.7-0.1,1.2,0.4,1.3,1c0.1,0.6-0.4,1.2-1,1.3l-9.2,1.2C2273,2319.5,2273,2319.5,2272.9,2319.5z M2303.6,2315.6
						c-0.6,0-1.1-0.4-1.1-1c-0.1-0.6,0.4-1.2,1-1.3l9.2-1.2c0.7-0.1,1.2,0.4,1.3,1c0.1,0.6-0.4,1.2-1,1.3l-9.2,1.2
						C2303.7,2315.5,2303.6,2315.6,2303.6,2315.6z M2590.8,2315.5c-0.6,0-1-0.4-1.1-1c-0.6-3-1.1-6.1-1.7-9.1
						c-0.1-0.6,0.3-1.2,0.9-1.4c0.6-0.1,1.2,0.3,1.4,0.9c0.6,3,1.2,6.1,1.7,9.1c0.1,0.6-0.3,1.2-0.9,1.3
						C2590.9,2315.5,2590.9,2315.5,2590.8,2315.5z M2334.2,2311.6c-0.6,0-1.1-0.4-1.1-1c-0.1-0.6,0.4-1.2,1-1.3l9.2-1.2
						c0.7-0.1,1.2,0.4,1.3,1c0.1,0.6-0.4,1.2-1,1.3l-9.2,1.2C2334.3,2311.6,2334.3,2311.6,2334.2,2311.6z M2364.9,2307.7
						c-0.6,0-1.1-0.4-1.1-1c-0.1-0.6,0.4-1.2,1-1.3l9.2-1.2c0.7-0.1,1.2,0.4,1.3,1c0.1,0.6-0.4,1.2-1,1.3l-9.2,1.2
						C2365,2307.7,2364.9,2307.7,2364.9,2307.7z M2395.5,2303.8c-0.6,0-1.1-0.4-1.1-1c-0.1-0.6,0.4-1.2,1-1.3l9.2-1.2
						c0.7-0.1,1.2,0.4,1.3,1c0.1,0.6-0.4,1.2-1,1.3l-9.2,1.2C2395.6,2303.8,2395.6,2303.8,2395.5,2303.8z M2426.2,2299.9
						c-0.6,0-1.1-0.4-1.1-1c-0.1-0.6,0.4-1.2,1-1.3l9.2-1.2c0.7-0.1,1.2,0.4,1.3,1c0.1,0.6-0.4,1.2-1,1.3l-9.2,1.2
						C2426.3,2299.9,2426.2,2299.9,2426.2,2299.9z M2456.8,2295.9c-0.6,0-1.1-0.4-1.1-1c-0.1-0.6,0.4-1.2,1-1.3l9.2-1.2
						c0.7-0.1,1.2,0.4,1.3,1c0.1,0.6-0.4,1.2-1,1.3l-9.2,1.2C2456.9,2295.9,2456.9,2295.9,2456.8,2295.9z M2487.5,2292
						c-0.6,0-1.1-0.4-1.1-1c-0.1-0.6,0.4-1.2,1-1.3l9.2-1.2c0.7-0.1,1.2,0.4,1.3,1c0.1,0.6-0.4,1.2-1,1.3l-9.2,1.2
						C2487.6,2292,2487.5,2292,2487.5,2292z M2518.1,2288.1c-0.6,0-1.1-0.4-1.1-1c-0.1-0.6,0.4-1.2,1-1.3l9.2-1.2
						c0.7-0.1,1.2,0.4,1.3,1c0.1,0.6-0.4,1.2-1,1.3l-9.2,1.2C2518.2,2288.1,2518.2,2288.1,2518.1,2288.1z M2584.4,2285.3
						c-0.5,0-1-0.4-1.1-0.9c-0.4-1.5-0.7-3-1.1-4.5l-2.5,0.3c-0.6,0.1-1.2-0.4-1.3-1c-0.1-0.6,0.4-1.2,1-1.3l4.6-0.6l0.3,1
						c0.5,1.8,0.9,3.7,1.4,5.5c0.2,0.6-0.2,1.3-0.9,1.4C2584.5,2285.3,2584.5,2285.3,2584.4,2285.3z M2548.8,2284.2
						c-0.6,0-1.1-0.4-1.1-1c-0.1-0.6,0.4-1.2,1-1.3l9.2-1.2c0.7-0.1,1.2,0.4,1.3,1c0.1,0.6-0.4,1.2-1,1.3l-9.2,1.2
						C2548.9,2284.2,2548.8,2284.2,2548.8,2284.2z"/>
					
						<linearGradient id="SVGID_38_" gradientUnits="userSpaceOnUse" x1="-136.8394" y1="2847.198" x2="-139.9482" y2="2771.8125" gradientTransform="matrix(0.9919 -0.127 0.127 0.9919 1989.9969 -609.5969)">
						<stop  offset="0" style="stop-color:#4F52FF"/>
						<stop  offset="1" style="stop-color:#4042E2"/>
					</linearGradient>
					<path class="st44" d="M2173.7,2201.7l-0.5-13.7c1-3.4,3.7-6.1,7.1-7.1c12.8-3.8,44.8-11.6,61.9-1.9l4.3,15.4L2173.7,2201.7z"/>
					
						<linearGradient id="SVGID_39_" gradientUnits="userSpaceOnUse" x1="-140.7719" y1="2734.0225" x2="-125.2303" y2="2950.0522" gradientTransform="matrix(0.9919 -0.127 0.127 0.9919 1989.9969 -609.5969)">
						<stop  offset="0" style="stop-color:#4F52FF"/>
						<stop  offset="1" style="stop-color:#4042E2"/>
					</linearGradient>
					<path class="st45" d="M2212.9,2183.4c-2.9,1.1-5.9,1.5-9.1,1.1c-3.8-0.4-6.8-3.4-7.2-7.1l-5.4-42.3l21.5-2.8l5.4,42.3
						C2218.6,2178.5,2216.4,2182.1,2212.9,2183.4z"/>
					
						<linearGradient id="SVGID_40_" gradientUnits="userSpaceOnUse" x1="73.1592" y1="2838.552" x2="70.0506" y2="2763.1675" gradientTransform="matrix(0.9919 -0.127 0.127 0.9919 1989.9969 -609.5969)">
						<stop  offset="0" style="stop-color:#4F52FF"/>
						<stop  offset="1" style="stop-color:#4042E2"/>
					</linearGradient>
					<path class="st46" d="M2382.3,2175l-0.5-13.7c1-3.4,3.7-6.1,7.1-7.1c12.8-3.8,44.8-11.6,61.9-1.9l4.3,15.4L2382.3,2175z"/>
					
						<linearGradient id="SVGID_41_" gradientUnits="userSpaceOnUse" x1="68.6623" y1="2718.9712" x2="84.2039" y2="2934.9993" gradientTransform="matrix(0.9919 -0.127 0.127 0.9919 1989.9969 -609.5969)">
						<stop  offset="0" style="stop-color:#4F52FF"/>
						<stop  offset="1" style="stop-color:#4042E2"/>
					</linearGradient>
					<path class="st47" d="M2421.5,2156.7c-2.9,1.1-5.9,1.5-9.1,1.1c-3.8-0.4-6.8-3.4-7.2-7.1l-6-46.8l21.5-2.8l6,46.8
						C2427.2,2151.8,2425.1,2155.4,2421.5,2156.7z"/>
					
						<linearGradient id="SVGID_42_" gradientUnits="userSpaceOnUse" x1="-17.6005" y1="2613.783" x2="-38.5784" y2="2767.6199" gradientTransform="matrix(0.9919 -0.127 0.127 0.9919 1989.9969 -609.5969)">
						<stop  offset="0" style="stop-color:#4F52FF"/>
						<stop  offset="1" style="stop-color:#4042E2"/>
					</linearGradient>
					<path class="st48" d="M2190.3,2145.8l230.7-37.3c5.3-0.9,9.3-5.2,9.5-10.5c0.3-7.4,0.1-18.4-3-29.5
						c-3.5-12.6-15.8-20.7-28.8-19.3c-43.4,4.5-153.4,18.6-210.9,50.4c-6.1,3.4-10.1,9.4-10.9,16.3c-0.7,6.6-0.7,15.2,2.5,23.6
						C2180.9,2143.9,2185.6,2146.6,2190.3,2145.8z"/>
					<path class="st5" d="M2184.6,2136.3c-1.4,0-2.7-1-3-2.4c-0.1-0.4-2.1-9.3-0.9-18.4c1-7.3,5.9-13.7,12.7-16.7
						c12.5-5.5,36.5-15.1,56.8-18.3c1.7-0.3,3.3,0.9,3.5,2.6c0.3,1.7-0.9,3.3-2.6,3.5c-20.4,3.2-45.5,13.6-55.3,17.9
						c-4.8,2.1-8.3,6.7-9,11.8c-1.1,7.9,0.8,16.1,0.8,16.1c0.4,1.7-0.7,3.3-2.3,3.7C2185.1,2136.3,2184.8,2136.3,2184.6,2136.3z"/>
					<linearGradient id="SVGID_43_" gradientUnits="userSpaceOnUse" x1="2323.593" y1="2399.2354" x2="2335.4001" y2="2146.228">
						<stop  offset="0" style="stop-color:#4F52FF"/>
						<stop  offset="1" style="stop-color:#4042E2"/>
					</linearGradient>
					<path class="st49" d="M2065.5,2210.2c74.7-10.5,398.1-55.4,493.6-56.1c8.2-0.1,15.6,5,18.4,12.7c8.8,24.4,27.4,81.3,33.5,139.4
						c0.8,7.9-4.1,15.3-11.7,17.7l-209.5,68.1l-76.3,9.8l-234.6-16.2c-8.3-0.6-15.1-6.6-16.5-14.8c-5.2-28.9-16.3-96.9-14-141.9
						C2048.8,2219.4,2056,2211.5,2065.5,2210.2z"/>
					<path class="st2" d="M2313,2384.2C2312.9,2384.2,2312.9,2384.2,2313,2384.2l-9.3-0.6c-0.6,0-1.1-0.6-1.1-1.2
						c0-0.6,0.6-1.1,1.2-1.1l9.2,0.6c0.6,0,1.1,0.6,1.1,1.2C2314.1,2383.8,2313.6,2384.2,2313,2384.2z M2282.1,2382.1
						C2282.1,2382.1,2282.1,2382.1,2282.1,2382.1l-9.3-0.6c-0.6,0-1.1-0.6-1.1-1.2c0-0.6,0.6-1.1,1.2-1.1l9.2,0.6
						c0.6,0,1.1,0.6,1.1,1.2C2283.2,2381.6,2282.7,2382.1,2282.1,2382.1z M2332.6,2381.7c-0.6,0-1.1-0.4-1.1-1
						c-0.1-0.6,0.4-1.2,1-1.3l9.2-1.2c0.7-0.1,1.2,0.4,1.3,1c0.1,0.6-0.4,1.2-1,1.3l-9.2,1.2
						C2332.7,2381.7,2332.6,2381.7,2332.6,2381.7z M2251.3,2380C2251.3,2380,2251.3,2380,2251.3,2380l-9.3-0.6
						c-0.6,0-1.1-0.6-1.1-1.2c0-0.6,0.7-1.1,1.2-1.1l9.2,0.6c0.6,0,1.1,0.6,1.1,1.2C2252.4,2379.5,2251.9,2380,2251.3,2380z
						 M2220.5,2377.8C2220.5,2377.8,2220.4,2377.8,2220.5,2377.8l-9.3-0.6c-0.6,0-1.1-0.6-1.1-1.2c0-0.6,0.6-1.1,1.2-1.1l9.2,0.6
						c0.6,0,1.1,0.6,1.1,1.2C2221.6,2377.4,2221.1,2377.8,2220.5,2377.8z M2363.2,2377.8c-0.6,0-1.1-0.4-1.1-1
						c-0.1-0.6,0.4-1.2,1-1.3l9.2-1.2c0.7-0.1,1.2,0.4,1.3,1c0.1,0.6-0.4,1.2-1,1.3l-9.2,1.2
						C2363.3,2377.8,2363.3,2377.8,2363.2,2377.8z M2189.7,2375.7C2189.6,2375.7,2189.6,2375.7,2189.7,2375.7l-9.3-0.6
						c-0.6,0-1.1-0.6-1.1-1.2c0-0.6,0.6-1.1,1.2-1.1l9.2,0.6c0.6,0,1.1,0.6,1.1,1.2C2190.8,2375.2,2190.3,2375.7,2189.7,2375.7z
						 M2158.8,2373.6C2158.8,2373.6,2158.8,2373.6,2158.8,2373.6l-9.3-0.6c-0.6,0-1.1-0.6-1.1-1.2c0-0.6,0.6-1.1,1.2-1.1l9.2,0.6
						c0.6,0,1.1,0.6,1.1,1.2C2159.9,2373.1,2159.4,2373.6,2158.8,2373.6z M2393.6,2372.4c-0.5,0-0.9-0.3-1.1-0.8
						c-0.2-0.6,0.1-1.3,0.7-1.5l8.8-2.9c0.6-0.2,1.3,0.1,1.5,0.7c0.2,0.6-0.1,1.3-0.7,1.5l-8.8,2.9
						C2393.8,2372.3,2393.7,2372.4,2393.6,2372.4z M2128,2371.5C2128,2371.5,2128,2371.5,2128,2371.5l-9.3-0.6
						c-0.6,0-1.1-0.6-1.1-1.2c0-0.6,0.6-1.1,1.2-1.1l9.2,0.6c0.6,0,1.1,0.6,1.1,1.2C2129.1,2371,2128.6,2371.5,2128,2371.5z
						 M2097.2,2369.3C2097.2,2369.3,2097.1,2369.3,2097.2,2369.3l-9.3-0.6c-0.6,0-1.1-0.6-1.1-1.2c0-0.6,0.6-1.1,1.2-1.1l9.2,0.6
						c0.6,0,1.1,0.6,1.1,1.2C2098.3,2368.9,2097.8,2369.3,2097.2,2369.3z M2422.9,2362.8c-0.5,0-0.9-0.3-1.1-0.8
						c-0.2-0.6,0.1-1.3,0.7-1.5l8.8-2.9c0.6-0.2,1.3,0.1,1.5,0.7c0.2,0.6-0.1,1.3-0.7,1.5l-8.8,2.9
						C2423.2,2362.8,2423.1,2362.8,2422.9,2362.8z M2078.2,2354.1c-0.6,0-1-0.4-1.1-1c-0.5-2.9-1-5.9-1.5-9.2
						c-0.1-0.6,0.3-1.2,1-1.3c0.6-0.1,1.2,0.3,1.3,1c0.5,3.2,1,6.3,1.5,9.1c0.1,0.6-0.3,1.2-1,1.3
						C2078.3,2354.1,2078.3,2354.1,2078.2,2354.1z M2452.3,2353.3c-0.5,0-0.9-0.3-1.1-0.8c-0.2-0.6,0.1-1.3,0.7-1.5l8.8-2.9
						c0.6-0.2,1.3,0.1,1.5,0.7c0.2,0.6-0.1,1.3-0.7,1.5l-8.8,2.9C2452.6,2353.2,2452.4,2353.3,2452.3,2353.3z M2481.7,2343.7
						c-0.5,0-0.9-0.3-1.1-0.8c-0.2-0.6,0.1-1.3,0.7-1.5l8.8-2.9c0.6-0.2,1.3,0.1,1.5,0.7c0.2,0.6-0.1,1.3-0.7,1.5l-8.8,2.9
						C2482,2343.7,2481.8,2343.7,2481.7,2343.7z M2511.1,2334.2c-0.5,0-0.9-0.3-1.1-0.8c-0.2-0.6,0.1-1.3,0.7-1.5l8.8-2.9
						c0.6-0.2,1.3,0.1,1.5,0.7c0.2,0.6-0.1,1.3-0.7,1.5l-8.8,2.9C2511.3,2334.1,2511.2,2334.2,2511.1,2334.2z M2540.5,2324.6
						c-0.5,0-0.9-0.3-1.1-0.8c-0.2-0.6,0.1-1.3,0.7-1.5l8.8-2.9c0.6-0.2,1.3,0.1,1.5,0.7c0.2,0.6-0.1,1.3-0.7,1.5l-8.8,2.9
						C2540.7,2324.6,2540.6,2324.6,2540.5,2324.6z M2073.5,2323.5c-0.6,0-1.1-0.4-1.1-1c-0.4-3-0.8-6.1-1.2-9.2
						c-0.1-0.6,0.4-1.2,1-1.3c0.6-0.1,1.2,0.4,1.3,1c0.4,3.1,0.8,6.2,1.2,9.2c0.1,0.6-0.4,1.2-1,1.3
						C2073.6,2323.5,2073.6,2323.5,2073.5,2323.5z M2569.9,2315.1c-0.5,0-0.9-0.3-1.1-0.8c-0.2-0.6,0.1-1.3,0.7-1.5l8.8-2.9
						c0.6-0.2,1.3,0.1,1.5,0.7c0.2,0.6-0.1,1.3-0.7,1.5l-8.8,2.9C2570.1,2315,2570,2315.1,2569.9,2315.1z M2591.4,2300.4
						c-0.6,0-1.1-0.4-1.1-1c-0.4-3.1-0.8-6.1-1.3-9.2c-0.1-0.6,0.3-1.2,1-1.3c0.7-0.1,1.2,0.3,1.3,1c0.5,3.1,0.9,6.1,1.3,9.2
						c0.1,0.6-0.4,1.2-1,1.3C2591.5,2300.4,2591.4,2300.4,2591.4,2300.4z M2069.7,2292.8c-0.6,0-1.1-0.4-1.2-1
						c-0.3-3.1-0.6-6.2-0.9-9.2c-0.1-0.6,0.4-1.2,1-1.3c0.7-0.1,1.2,0.4,1.3,1c0.3,3.1,0.6,6.1,0.9,9.2c0.1,0.6-0.4,1.2-1,1.3
						C2069.8,2292.8,2069.8,2292.8,2069.7,2292.8z M2586.4,2269.9c-0.5,0-1-0.4-1.1-0.9c-0.6-3.1-1.2-6.1-1.8-9.1
						c-0.1-0.6,0.3-1.2,0.9-1.4c0.6-0.1,1.2,0.3,1.4,0.9c0.6,3,1.3,6,1.8,9.1c0.1,0.6-0.3,1.2-0.9,1.4
						C2586.6,2269.9,2586.5,2269.9,2586.4,2269.9z M2067.2,2262c-0.6,0-1.1-0.5-1.2-1.1c-0.2-3.1-0.3-6.2-0.4-9.3
						c0-0.6,0.5-1.2,1.1-1.2c0.6,0,1.2,0.5,1.2,1.1c0.1,3,0.2,6.1,0.4,9.2C2068.4,2261.4,2067.9,2262,2067.2,2262
						C2067.3,2262,2067.3,2262,2067.2,2262z M2579.7,2239.8c-0.5,0-1-0.4-1.1-0.9c-0.8-3-1.5-6-2.3-9c-0.2-0.6,0.2-1.3,0.8-1.4
						c0.6-0.2,1.3,0.2,1.4,0.8c0.8,2.9,1.5,5.9,2.3,9c0.2,0.6-0.2,1.3-0.8,1.4C2579.9,2239.8,2579.8,2239.8,2579.7,2239.8z
						 M2067,2231.2L2067,2231.2c-0.6,0-1.2-0.6-1.2-1.2c0-0.1,0-0.2,0-0.2c0-1.1,0.9-2,2.1-2.2l7.3-1c0.7-0.1,1.2,0.4,1.3,1
						c0.1,0.6-0.4,1.2-1,1.3l-7.3,1.1l-0.1,0.2C2068.1,2230.7,2067.6,2231.2,2067,2231.2z M2096.9,2225.8c-0.6,0-1.1-0.4-1.1-1
						c-0.1-0.6,0.4-1.2,1-1.3l9.2-1.3c0.6-0.1,1.2,0.4,1.3,1c0.1,0.6-0.4,1.2-1,1.3l-9.2,1.3
						C2097,2225.8,2096.9,2225.8,2096.9,2225.8z M2127.5,2221.6c-0.6,0-1.1-0.4-1.1-1c-0.1-0.6,0.4-1.2,1-1.3l9.2-1.3
						c0.7-0.1,1.2,0.4,1.3,1c0.1,0.6-0.4,1.2-1,1.3l-9.2,1.3C2127.6,2221.6,2127.5,2221.6,2127.5,2221.6z M2158.1,2217.4
						c-0.6,0-1.1-0.4-1.1-1c-0.1-0.6,0.4-1.2,1-1.3l9.2-1.2c0.7-0.1,1.2,0.4,1.3,1c0.1,0.6-0.4,1.2-1,1.3l-9.2,1.2
						C2158.2,2217.4,2158.2,2217.4,2158.1,2217.4z M2188.7,2213.3c-0.6,0-1.1-0.4-1.1-1c-0.1-0.6,0.4-1.2,1-1.3l9.2-1.2
						c0.6-0.1,1.2,0.4,1.3,1c0.1,0.6-0.4,1.2-1,1.3l-9.2,1.2C2188.8,2213.3,2188.8,2213.3,2188.7,2213.3z M2571.5,2210
						c-0.5,0-1-0.3-1.1-0.8c-0.9-3.1-1.8-6-2.7-8.9c-0.2-0.6,0.2-1.3,0.8-1.5c0.6-0.2,1.3,0.1,1.5,0.8c0.9,2.8,1.8,5.8,2.7,8.9
						c0.2,0.6-0.2,1.3-0.8,1.4C2571.8,2209.9,2571.7,2210,2571.5,2210z M2219.4,2209.2c-0.6,0-1.1-0.4-1.1-1c-0.1-0.6,0.4-1.2,1-1.3
						l9.2-1.2c0.6-0.1,1.2,0.4,1.3,1c0.1,0.6-0.4,1.2-1,1.3l-9.2,1.2C2219.5,2209.2,2219.4,2209.2,2219.4,2209.2z M2250,2205.3
						c-0.6,0-1.1-0.4-1.1-1c-0.1-0.6,0.4-1.2,1-1.3l9.2-1.2c0.7-0.1,1.2,0.4,1.3,1c0.1,0.6-0.4,1.2-1,1.3l-9.2,1.2
						C2250.1,2205.3,2250.1,2205.3,2250,2205.3z M2280.7,2201.4c-0.6,0-1.1-0.4-1.1-1c-0.1-0.6,0.4-1.2,1-1.3l9.2-1.2
						c0.7-0.1,1.2,0.4,1.3,1c0.1,0.6-0.4,1.2-1,1.3l-9.2,1.2C2280.8,2201.4,2280.7,2201.4,2280.7,2201.4z M2311.4,2197.6
						c-0.6,0-1.1-0.4-1.1-1c-0.1-0.6,0.4-1.2,1-1.3l9.2-1.1c0.7-0.1,1.2,0.4,1.3,1c0.1,0.6-0.4,1.2-1,1.3l-9.2,1.1
						C2311.5,2197.6,2311.4,2197.6,2311.4,2197.6z M2342,2193.8c-0.6,0-1.1-0.4-1.1-1c-0.1-0.6,0.4-1.2,1-1.3l9.2-1.1
						c0.7-0.1,1.2,0.4,1.3,1c0.1,0.6-0.4,1.2-1,1.3l-9.2,1.1C2342.1,2193.8,2342.1,2193.8,2342,2193.8z M2372.7,2190.2
						c-0.6,0-1.1-0.4-1.1-1c-0.1-0.6,0.4-1.2,1-1.3l9.2-1.1c0.7-0.1,1.2,0.4,1.3,1c0.1,0.6-0.4,1.2-1,1.3l-9.2,1.1
						C2372.8,2190.2,2372.8,2190.2,2372.7,2190.2z M2403.4,2186.7c-0.6,0-1.1-0.4-1.2-1c-0.1-0.6,0.4-1.2,1-1.3l9.2-1
						c0.7-0.1,1.2,0.4,1.3,1c0.1,0.6-0.4,1.2-1,1.3l-9.2,1C2403.5,2186.7,2403.5,2186.7,2403.4,2186.7z M2434.1,2183.4
						c-0.6,0-1.1-0.4-1.2-1c-0.1-0.6,0.4-1.2,1-1.3l9.2-1c0.6,0,1.2,0.4,1.3,1c0.1,0.6-0.4,1.2-1,1.3l-9.2,1
						C2434.2,2183.4,2434.2,2183.4,2434.1,2183.4z M2562.1,2180.5c-0.5,0-0.9-0.3-1.1-0.8c-0.7-2.1-1.4-4.1-2-5.8l-1.6,0
						c0,0,0,0,0,0c-0.6,0-1.1-0.5-1.2-1.1c0-0.6,0.5-1.2,1.1-1.2l1.9,0c0.8,0,1.5,0.5,1.8,1.1c0.7,1.8,1.4,3.9,2.2,6.2
						c0.2,0.6-0.1,1.3-0.7,1.5C2562.3,2180.5,2562.2,2180.5,2562.1,2180.5z M2464.9,2180.3c-0.6,0-1.1-0.4-1.2-1
						c-0.1-0.6,0.4-1.2,1-1.3c3.1-0.3,6.2-0.6,9.2-0.9c0.7-0.1,1.2,0.4,1.3,1c0.1,0.6-0.4,1.2-1,1.3c-3,0.3-6.1,0.6-9.2,0.9
						C2465,2180.3,2464.9,2180.3,2464.9,2180.3z M2495.7,2177.6c-0.6,0-1.1-0.5-1.2-1.1c-0.1-0.6,0.4-1.2,1.1-1.3
						c3.2-0.3,6.2-0.5,9.2-0.8c0.7-0.1,1.2,0.4,1.2,1.1c0,0.6-0.4,1.2-1.1,1.2C2502,2177,2498.9,2177.3,2495.7,2177.6
						C2495.7,2177.6,2495.7,2177.6,2495.7,2177.6z M2526.5,2175.3c-0.6,0-1.1-0.5-1.2-1.1c0-0.6,0.4-1.2,1.1-1.2
						c3.2-0.2,6.3-0.4,9.3-0.5c0.6,0,1.2,0.5,1.2,1.1c0,0.6-0.5,1.2-1.1,1.2C2532.8,2174.9,2529.8,2175.1,2526.5,2175.3
						C2526.5,2175.3,2526.5,2175.3,2526.5,2175.3z"/>
					<linearGradient id="SVGID_44_" gradientUnits="userSpaceOnUse" x1="2284.2854" y1="2379.531" x2="2401.9065" y2="2379.531">
						<stop  offset="0" style="stop-color:#09005D"/>
						<stop  offset="1" style="stop-color:#1A0F91"/>
					</linearGradient>
					<path class="st50" d="M2386.7,2425l-66.8,8.5c-8.8,1.1-17-4.5-19.1-13l-15.9-63.3c-2.5-10.1,4.3-20.1,14.7-21.4l80.3-10.3
						c10.2-1.3,19.2,6.3,19.6,16.5l2.5,65C2402.2,2416.1,2395.6,2423.8,2386.7,2425z"/>
					<linearGradient id="SVGID_45_" gradientUnits="userSpaceOnUse" x1="2299.0154" y1="2379.6147" x2="2388.5378" y2="2379.6147">
						<stop  offset="0" style="stop-color:#4F52FF"/>
						<stop  offset="1" style="stop-color:#4042E2"/>
					</linearGradient>
					<path class="st51" d="M2376.9,2414.2l-50.9,6.5c-6.7,0.9-12.9-3.4-14.5-9.9l-12.1-48.2c-1.9-7.7,3.3-15.3,11.2-16.3l61.1-7.8
						c7.7-1,14.6,4.8,14.9,12.6l1.9,49.5C2388.8,2407.4,2383.8,2413.3,2376.9,2414.2z"/>
				</g>
				<linearGradient id="SVGID_46_" gradientUnits="userSpaceOnUse" x1="2397.3359" y1="1938.2844" x2="2226.6511" y2="2266.5249">
					<stop  offset="0" style="stop-color:#FEBBBA"/>
					<stop  offset="1" style="stop-color:#FF928E"/>
				</linearGradient>
				<path class="st52" d="M2337.2,1901.9c15.8,65.1,16.2,128.8,13.8,152c-0.9,8.7-7.9,15.6-16.7,16.2c-10,0.7-23.5,1.6-35.6,2.3
					c-13.3,0.8-28.1-7.6-38-14.7c-5-3.6-11.6,2-8.8,7.5c4.9,9.5,13.3,17,21.7,23.3c5,3.8,21.8,10.6,20.6,18.2
					c-0.4,2.4-1.8,4.4-3.3,6.3c-9.3,11.2-23.4,17.1-37.3,21.4c-1.7,0.5-3.6,1.1-4.8,2.5c-0.3,9,27.3,19,34.4,21.3
					c10.7,3.5,22,5,33.2,3.9c27.8-2.9,53.5-22.1,68.5-45.3c40-61.9,60.7-136.6,68.3-193.7
					C2415.9,1885.9,2359.7,1895.3,2337.2,1901.9z"/>
				<g>
					<linearGradient id="SVGID_47_" gradientUnits="userSpaceOnUse" x1="2643.7092" y1="1381.8047" x2="2154.562" y2="2019.382">
						<stop  offset="0" style="stop-color:#FF928E"/>
						<stop  offset="1" style="stop-color:#FE7062"/>
					</linearGradient>
					<path class="st53" d="M2453.2,1929c29.7-224.3-143.2-396.9-143.2-396.9l-102.9,119.9c78.1,97.3,115.2,186.5,132.2,256.6
						C2361.8,1902.1,2415.9,1891.8,2453.2,1929z"/>
					<linearGradient id="SVGID_48_" gradientUnits="userSpaceOnUse" x1="2578.6362" y1="1317.8735" x2="2006.8689" y2="2162.8755">
						<stop  offset="0" style="stop-color:#E1473D"/>
						<stop  offset="1" style="stop-color:#E9605A"/>
					</linearGradient>
					<path class="st54" d="M2336.8,1907.6c-2.9,0-5.5-2-6.2-4.9c-20.9-86.4-65-171.9-131-254.1c-2.2-2.7-1.8-6.8,1-9
						c2.7-2.2,6.8-1.8,9,1c67.2,83.7,112.1,170.9,133.4,259.1c0.8,3.4-1.3,6.9-4.7,7.7C2337.8,1907.5,2337.3,1907.6,2336.8,1907.6z"
						/>
				</g>
			</g>
			<g>
				<g>
					
						<linearGradient id="SVGID_49_" gradientUnits="userSpaceOnUse" x1="-493.3038" y1="3185.2715" x2="-346.4171" y2="3185.2715" gradientTransform="matrix(1 0 0 1 1290.1023 0)">
						<stop  offset="0" style="stop-color:#09005D"/>
						<stop  offset="1" style="stop-color:#1A0F91"/>
					</linearGradient>
					<path class="st55" d="M943.7,3237.6c0-1.1-0.1-2.2-0.3-3.3c-16.5-65.6-98.7-106.4-98.7-106.4l-32.5,2.6
						c-18.7,57.8-16.3,93.3-13.3,109.1c0.1,0.4,0.2,0.9,0.3,1.3C826,3243.1,881.3,3244.7,943.7,3237.6z"/>
					
						<linearGradient id="SVGID_50_" gradientUnits="userSpaceOnUse" x1="-125.5805" y1="3011.9866" x2="-659.9589" y2="3431.582" gradientTransform="matrix(1 0 0 1 1290.1023 0)">
						<stop  offset="0" style="stop-color:#4F52FF"/>
						<stop  offset="1" style="stop-color:#4042E2"/>
					</linearGradient>
					<path class="st56" d="M799.2,3240.7c1.4,5.3,5.3,9.4,10.3,10.4c38.2,8,98.9,1.6,124.3-1.8c5.6-0.7,9.7-5.9,9.8-11.8
						C881.3,3244.7,826,3243.1,799.2,3240.7z"/>
					
						<linearGradient id="SVGID_51_" gradientUnits="userSpaceOnUse" x1="-452.4561" y1="3018.0476" x2="-480.5139" y2="3262.917" gradientTransform="matrix(1 0 0 1 1290.1023 0)">
						<stop  offset="0" style="stop-color:#FEBBBA"/>
						<stop  offset="1" style="stop-color:#FF928E"/>
					</linearGradient>
					<path class="st57" d="M799.1,3081.9l13.8,66.3c1,4.9,4.7,8.5,9.3,8.9c5.5,0.5,13.4,0.8,21.4-0.3c7.1-1,12.1-8.3,10.8-16
						l-9.6-58.9H799.1z"/>
					
						<linearGradient id="SVGID_52_" gradientUnits="userSpaceOnUse" x1="-30.651" y1="3132.7104" x2="-565.0305" y2="3552.3066" gradientTransform="matrix(1 0 0 1 1290.1023 0)">
						<stop  offset="0" style="stop-color:#4F52FF"/>
						<stop  offset="1" style="stop-color:#4042E2"/>
					</linearGradient>
					<path class="st58" d="M1084.6,3239.9c-35.9-1-54.5-5.2-64.1-9.2c0,3.6,0,7.2,0.1,11c0.1,4,3.1,7.2,6.8,7.2l197.3-1.3
						c6.3,0,10-7.3,7.2-13.1C1206,3236.6,1140.1,3241.4,1084.6,3239.9z"/>
					
						<linearGradient id="SVGID_53_" gradientUnits="userSpaceOnUse" x1="-269.6345" y1="3189.0049" x2="-58.1929" y2="3189.0049" gradientTransform="matrix(1 0 0 1 1290.1023 0)">
						<stop  offset="0" style="stop-color:#09005D"/>
						<stop  offset="1" style="stop-color:#1A0F91"/>
					</linearGradient>
					<path class="st59" d="M1231.9,3234.5c-0.2-0.5-0.4-1-0.8-1.5c-17.4-24.3-61.8-72.8-149.5-93.9l-42.1-1.3
						c0,0-18.7,32.6-19.1,92.9c9.6,3.9,28.2,8.2,64.1,9.2C1140.1,3241.4,1206,3236.6,1231.9,3234.5z"/>
					
						<linearGradient id="SVGID_54_" gradientUnits="userSpaceOnUse" x1="-118.307" y1="2976.6567" x2="-146.3652" y2="3221.5303" gradientTransform="matrix(0.998 -6.290000e-02 6.290000e-02 0.998 993.2088 65.7657)">
						<stop  offset="0" style="stop-color:#FEBBBA"/>
						<stop  offset="1" style="stop-color:#FF928E"/>
					</linearGradient>
					<path class="st60" d="M1029.9,3076c0.7,3.1,9.4,50.3,12.8,68.6c0.8,4.3,4.2,7.5,8.2,7.8c7.2,0.4,18.8,0.5,28.8-2.3
						c5.4-1.5,9-7,8.6-13.1l-4.7-74.7L1029.9,3076z"/>
					<linearGradient id="SVGID_55_" gradientUnits="userSpaceOnUse" x1="947.1257" y1="2919.5645" x2="791.9476" y2="2069.4612">
						<stop  offset="0" style="stop-color:#09005D"/>
						<stop  offset="1" style="stop-color:#1A0F91"/>
					</linearGradient>
					<path class="st61" d="M998,2204.4c0,0,57.9,397.7,99.6,870.9c0.8,8.8-6.2,16.5-14.9,18.3c-12.8,2.7-31.5,5.9-47,5.4
						c-8.3-0.2-15.2-6.4-16.6-14.6c-14.2-83.4-115.8-531.2-142.4-629.8c0,0-30.6,418.6-20.8,635.8c0.2,5.4-3.7,10.1-9.1,10.7
						c-8.1,0.9-21.2,1.7-37.8-0.1c-6.3-0.7-11.4-5.4-12.3-11.7c-10.1-70.6-68.5-490.9-66-793.7c0.1-17.1,20-157.4,20-157.4
						L998,2204.4z"/>
				</g>
				<linearGradient id="SVGID_56_" gradientUnits="userSpaceOnUse" x1="288.5885" y1="2456.1431" x2="1307.3618" y2="1545.3187">
					<stop  offset="0" style="stop-color:#4F52FF"/>
					<stop  offset="1" style="stop-color:#4042E2"/>
				</linearGradient>
				<path class="st62" d="M742.1,2227.4c-6-2.1-10.1-7.5-10.7-13.8c-7.7-74.7-45-537.6,190.3-728.1c0,0,13.5-35.3,124.4,51.5
					c110.9,86.8,51.5,177.7,25,303.2c-32.1,151.8-88.5,275.9-63.6,369.3c1.7,6.4-1.7,13.2-7.9,15.5
					C913.4,2256.7,827.6,2257.7,742.1,2227.4z"/>
				
					<linearGradient id="SVGID_57_" gradientUnits="userSpaceOnUse" x1="-340.5229" y1="1590.8394" x2="-275.3581" y2="1412.8892" gradientTransform="matrix(1 0 0 1 1290.1023 0)">
					<stop  offset="0" style="stop-color:#FEBBBA"/>
					<stop  offset="1" style="stop-color:#FF928E"/>
				</linearGradient>
				<path class="st63" d="M1013.4,1346.8c-0.1,6.6-94,140-94,140s16.9,33.2,97.4,60.2l69.5-142.9L1013.4,1346.8z"/>
				<g>
					<linearGradient id="SVGID_58_" gradientUnits="userSpaceOnUse" x1="1116.8994" y1="1511.3988" x2="985.3353" y2="1238.151">
						<stop  offset="0" style="stop-color:#FEBBBA"/>
						<stop  offset="1" style="stop-color:#FF928E"/>
					</linearGradient>
					<path class="st64" d="M1087.4,1270.4c0,0,33.4,76.8,35.7,117.1c2.2,40.3,10.9,66.4-35.7,74.6c-46.6,8.1-85.9-15.1-107.1-55.2
						c0,0-33.3-61.9-25.8-87.2C961.9,1294.2,1087.4,1270.4,1087.4,1270.4z"/>
					<linearGradient id="SVGID_59_" gradientUnits="userSpaceOnUse" x1="892.8256" y1="1150.6576" x2="1053.9413" y2="1339.3619">
						<stop  offset="0" style="stop-color:#09005D"/>
						<stop  offset="1" style="stop-color:#1A0F91"/>
					</linearGradient>
					<path class="st65" d="M996.2,1377.9l2.7-1.2c3.4-1.5,4.8-5.5,3.1-8.8c-6.6-12.7-19.4-41.8-2.8-48.6c21.3-8.7,105.8-26,124-55.9
						c17.5-28.8,2-66-21.3-76.6c-1.6-0.7-3.4-0.1-4.2,1.4l-1.9,3.7c-1.3,2.5-5.1,2.1-5.8-0.6l0,0c-0.8-2.6-4.3-3.1-5.7-0.8
						c-5.6,9-20.7,23.5-61.2,31c-57.5,10.6-95.5,33.9-96.4,73.6c-0.1,2.5-2.7,3.9-4.9,2.6c-4.2-2.6-11-3.8-20.1,3.8
						c-15.8,13.3-9.3,47.7,25.3,76c1.6,1.3,1.6,3.9-0.1,5.1c-6.3,4.1-15.6,13.8,8.6,26.8c25.1,13.4,43.8,12.3,51,11.1
						c1.8-0.3,2.9-2,2.6-3.8l-7.7-34.9c-0.4-2,1.1-3.8,3.1-3.8H996.2z"/>
					<linearGradient id="SVGID_60_" gradientUnits="userSpaceOnUse" x1="1056.2378" y1="1540.6062" x2="924.674" y2="1267.3589">
						<stop  offset="0" style="stop-color:#FEBBBA"/>
						<stop  offset="1" style="stop-color:#FF928E"/>
					</linearGradient>
					<path class="st66" d="M997.6,1385.3c0,0-12.8-49-34.7-35.3c-22,13.8,11.4,55,29.1,56.8L997.6,1385.3z"/>
				</g>
				<g>
					<linearGradient id="SVGID_61_" gradientUnits="userSpaceOnUse" x1="1944.2267" y1="830.7567" x2="1412.9385" y2="1367.104">
						<stop  offset="0" style="stop-color:#4F52FF"/>
						<stop  offset="1" style="stop-color:#4042E2"/>
					</linearGradient>
					<path class="st67" d="M1081.7,1577.3l6.5,173.9c18.4,6.3,35.9,11.3,52.6,14.9c10.4-33.6,33.4-74.8,52.2-105.5
						C1123.9,1636.2,1081.7,1577.3,1081.7,1577.3z"/>
					<linearGradient id="SVGID_62_" gradientUnits="userSpaceOnUse" x1="1320.5559" y1="1415.9738" x2="1263.2083" y2="2056.9236">
						<stop  offset="0" style="stop-color:#FEBBBA"/>
						<stop  offset="1" style="stop-color:#FF928E"/>
					</linearGradient>
					<path class="st68" d="M1426.7,1574.3c-94.8,102.4-171.5,108.4-233.7,86.4c-18.8,30.6-41.8,71.9-52.2,105.5
						c253.2,55.8,312.8-176.9,312.8-176.9L1426.7,1574.3z"/>
					<linearGradient id="SVGID_63_" gradientUnits="userSpaceOnUse" x1="1685.0527" y1="1363.1648" x2="1544.8357" y2="1509.6138">
						<stop  offset="0" style="stop-color:#FEBBBA"/>
						<stop  offset="1" style="stop-color:#FF928E"/>
					</linearGradient>
					<path class="st69" d="M1445.9,1563.4c0,0,10.9-11.7,31.1-8s38.2,10.7,50.8,0c12.6-10.7,17,3.7,17,3.7l-37.7,28.7L1445.9,1563.4
						z"/>
					<linearGradient id="SVGID_64_" gradientUnits="userSpaceOnUse" x1="1529.7599" y1="1434.6919" x2="1472.4125" y2="2075.6404">
						<stop  offset="0" style="stop-color:#FEBBBA"/>
						<stop  offset="1" style="stop-color:#FF928E"/>
					</linearGradient>
					<path class="st70" d="M1423.4,1583.5c0,0,7.5-31.3,30-27c22.5,4.3,73.7,32.1,86.9,27c13.2-5.1,30.1-17.4,38.7-13.1l-15.2,19
						c0,0,39.2-22.6,45.9-8.7l-65.2,36.7C1544.5,1617.3,1449.1,1607.8,1423.4,1583.5z"/>
				</g>
				<linearGradient id="SVGID_65_" gradientUnits="userSpaceOnUse" x1="1347.0657" y1="1807.797" x2="783.7056" y2="1821.2908">
					<stop  offset="0" style="stop-color:#FEBBBA"/>
					<stop  offset="1" style="stop-color:#FF928E"/>
				</linearGradient>
				<path class="st71" d="M976.5,1804.9c0,0,178.2,149.3,370.7,84.1c11.9-4,25-3.2,36.1,2.7l55.3,29.2c23.2,12.3,52,4.2,65.5-18.3
					c7.7-12.9,14.2-27.5,15.6-41.6l-108.3-43.8l8-13.3c0,0-52.9-4.5-66.7,33.4c0,0-100.7,41.9-270.5-144.9
					C1082.2,1692.5,1005.1,1758,976.5,1804.9z"/>
				<linearGradient id="SVGID_66_" gradientUnits="userSpaceOnUse" x1="2481.6213" y1="573.2676" x2="1496.5823" y2="1301.9269">
					<stop  offset="0" style="stop-color:#09005D"/>
					<stop  offset="1" style="stop-color:#1A0F91"/>
				</linearGradient>
				<path class="st72" d="M966.9,1803.4c-0.6,0-1.2-0.2-1.7-0.5c-75-50.7-110.3-132.5-110.7-133.4c-0.7-1.6,0.1-3.3,1.6-4
					c1.6-0.7,3.3,0.1,4,1.6c0.3,0.8,35,81,108.5,130.7c1.4,0.9,1.8,2.8,0.8,4.2C968.8,1802.9,967.8,1803.4,966.9,1803.4z"/>
				<linearGradient id="SVGID_67_" gradientUnits="userSpaceOnUse" x1="2447.5552" y1="527.209" x2="1462.517" y2="1255.8676">
					<stop  offset="0" style="stop-color:#09005D"/>
					<stop  offset="1" style="stop-color:#1A0F91"/>
				</linearGradient>
				<path class="st73" d="M1078.6,1689.9c-1,0-2-0.5-2.6-1.4c-0.2-0.4-23.2-36-66.8-114.2c-13.4-24-31.1-39.3-52.5-45.3
					c-35.4-9.9-69.5,9.1-69.9,9.3c-1.5,0.8-3.3,0.3-4.2-1.1c-0.8-1.5-0.3-3.3,1.1-4.2c1.5-0.8,36.6-20.5,74.5-9.9
					c23,6.4,41.9,22.6,56.2,48.2c43.6,78,66.4,113.6,66.6,113.9c0.9,1.4,0.5,3.3-0.9,4.2C1079.8,1689.8,1079.2,1689.9,1078.6,1689.9
					z"/>
			</g>
		</g>
	</g>
</g>
</svg>
