<?xml version="1.0" encoding="utf-8"?>
<!-- Generator: Adobe Illustrator 24.1.1, SVG Export Plug-In . SVG Version: 6.00 Build 0)  -->
<svg version="1.1" xmlns="http://www.w3.org/2000/svg" xmlns:xlink="http://www.w3.org/1999/xlink" x="0px" y="0px"
	 viewBox="0 0 500 500" style="enable-background:new 0 0 500 500;" xml:space="preserve">
<style type="text/css">
	.st0{display:none;}
	.st1{display:inline;}
	.st2{fill:#FAFAFA;}
	.st3{fill:#407BFF;}
	.st4{opacity:0.9;fill:#FFFFFF;}
	.st5{fill:#EBEBEB;}
	.st6{fill:#F5F5F5;}
	.st7{fill:#F0F0F0;}
	.st8{fill:#FFFFFF;}
	.st9{fill:#E0E0E0;}
	.st10{opacity:0.1;}
	.st11{opacity:0.8;fill:none;stroke:#FFFFFF;stroke-width:0.5;stroke-miterlimit:10;}
	.st12{opacity:0.4;fill:#FFFFFF;}
	.st13{opacity:0.1;fill:#FFFFFF;enable-background:new    ;}
	.st14{opacity:0.2;}
	.st15{opacity:0.2;fill:#FFFFFF;}
	.st16{opacity:0.3;}
	.st17{opacity:0.5;fill:#FFFFFF;}
	.st18{fill:#263238;}
	.st19{opacity:0.7;fill:#FFFFFF;}
	.st20{opacity:0.1;fill:#FFFFFF;}
	.st21{fill:#FF8B7B;}
	.st22{opacity:0.4;fill:#263238;}
	.st23{opacity:0.4;}
	.st24{fill:#A02724;}
</style>
<g id="Shadows_1_" class="st0">
	<g id="Shadows" class="st1">
		<ellipse id="path--inject-112_1_" class="st2" cx="250" cy="463.9" rx="193.9" ry="11.3"/>
	</g>
</g>
<g id="Background_Simple_1_" class="st0">
	<g id="Simple_Background" class="st1">
		<path class="st3" d="M240.7,95.6c-26.1,0.4-52.5,1.9-77.6,9.1c-25.1,7.2-49.1,20.5-65.3,41c-12,15.2-19.4,36-12.3,54
			c6.4,16.2,22.6,26,37.2,35.6c14.6,9.6,29.6,22.4,31.3,39.7c1.3,13.1-5.8,25.9-15,35.2c-9.3,9.4-20.8,16.2-31.4,24
			c-10.6,7.8-20.8,17.2-25.5,29.5c-4.7,12.3-2.6,28.1,7.9,36c6.3,4.8,14.5,6.1,22.3,7c56.1,6.5,114.4-2.5,164.4-28.8
			c50-26.3,91.1-70.4,110.6-123.4c9.3-25.4,13.8-53.1,9.2-79.8c-3.9-22.5-14.6-44.3-31.5-59.9c-18.3-16.7-51.1-16.7-74.7-18.3
			C273.8,95.7,257.3,95.4,240.7,95.6z"/>
		<path class="st4" d="M240.7,95.6c-26.1,0.4-52.5,1.9-77.6,9.1c-25.1,7.2-49.1,20.5-65.3,41c-12,15.2-19.4,36-12.3,54
			c6.4,16.2,22.6,26,37.2,35.6c14.6,9.6,29.6,22.4,31.3,39.7c1.3,13.1-5.8,25.9-15,35.2c-9.3,9.4-20.8,16.2-31.4,24
			c-10.6,7.8-20.8,17.2-25.5,29.5c-4.7,12.3-2.6,28.1,7.9,36c6.3,4.8,14.5,6.1,22.3,7c56.1,6.5,114.4-2.5,164.4-28.8
			c50-26.3,91.1-70.4,110.6-123.4c9.3-25.4,13.8-53.1,9.2-79.8c-3.9-22.5-14.6-44.3-31.5-59.9c-18.3-16.7-51.1-16.7-74.7-18.3
			C273.8,95.7,257.3,95.4,240.7,95.6z"/>
	</g>
</g>
<g id="Background_Complete" class="st0">
	<g id="Detailed_Background" class="st1">
		<g>
			<rect y="406.1" class="st5" width="500" height="0.3"/>
			<rect x="370.5" y="416.5" class="st6" width="53.1" height="0.3"/>
			<rect x="272.6" y="421" class="st6" width="58.7" height="0.3"/>
			<rect x="340.9" y="421" class="st6" width="19.2" height="0.3"/>
			<rect x="100.5" y="416.5" class="st6" width="43.2" height="0.3"/>
			<rect x="79.5" y="414.5" class="st6" width="15.4" height="0.3"/>
			<rect x="131.5" y="420.8" class="st6" width="54.2" height="0.3"/>
		</g>
		<g>
			<path class="st5" d="M238.4,341.5H45.3c-3.1,0-5.7-2.6-5.7-5.7V64.4c0-3.1,2.6-5.7,5.7-5.7h193.1c3.2,0,5.7,2.6,5.7,5.7l0,0
				v271.4C244.1,339,241.5,341.5,238.4,341.5z M45.3,58.9c-3,0-5.5,2.4-5.5,5.5v271.4c0,3,2.4,5.5,5.5,5.5h193.1
				c3,0,5.5-2.4,5.5-5.5V64.4c0-3-2.4-5.5-5.5-5.5H45.3z"/>
			<path class="st5" d="M454.7,341.5H261.6c-3.2,0-5.7-2.6-5.7-5.7V64.4c0-3.1,2.6-5.7,5.7-5.7h193.1c3.1,0,5.7,2.5,5.7,5.7v271.4
				C460.4,339,457.9,341.5,454.7,341.5z M261.6,58.9c-3,0-5.5,2.4-5.5,5.5v271.4c0,3,2.4,5.5,5.5,5.5h193.1c3,0,5.5-2.4,5.5-5.5
				V64.4c0-3-2.4-5.5-5.5-5.5H261.6z"/>
		</g>
		<g>
			<polygon class="st7" points="78.4,216.2 71.3,216.2 69.3,213.6 80.4,213.6 			"/>
			<g>
				<g>
					<g>
						<path class="st7" d="M89.4,184.3c0,4.3-1.9,8.2-4.9,10.9c-2.1,1.8-3.3,4.4-3.3,7.1v1.1H68.5v-1.1c0-2.8-1.3-5.3-3.3-7.1
							c-3-2.7-4.9-6.6-4.9-10.9c0-8.3,7-15,15.4-14.6C83.3,170.1,89.5,176.6,89.4,184.3z"/>
						<g>
							<g>
								
									<rect x="70.4" y="188.2" transform="matrix(0.9798 -0.2 0.2 0.9798 -37.7463 18.1249)" class="st8" width="0.9" height="15.3"/>
							</g>
							<g>
								
									<rect x="71.2" y="195.4" transform="matrix(0.1992 -0.98 0.98 0.1992 -128.743 234.1521)" class="st8" width="15.3" height="0.9"/>
							</g>
							<g>
								<polygon class="st8" points="76.6,194.9 74.9,191.7 73.1,194.9 69.8,191.1 70.4,190.5 72.9,193.3 74.9,189.9 76.8,193.3 
									79.3,190.5 79.9,191.1 								"/>
							</g>
						</g>
						<polygon class="st7" points="81.2,203.4 81.2,213.5 68.5,213.6 68.5,203.4 						"/>
						<g>
							
								<rect x="68.5" y="213.1" transform="matrix(1 -5.911003e-03 5.911003e-03 1 -1.2609 0.4462)" class="st8" width="12.7" height="0.9"/>
						</g>
						<g>
							
								<rect x="68.5" y="202.9" transform="matrix(1 -5.911003e-03 5.911003e-03 1 -1.2009 0.446)" class="st8" width="12.7" height="0.9"/>
						</g>
					</g>
				</g>
			</g>
		</g>
		<g>
			<polygon class="st5" points="383.3,448.2 331.4,448.2 348.1,463.4 401.6,463.4 			"/>
			<g>
				<polygon class="st8" points="324.5,471.2 286,450.6 318.1,438.8 355.4,457.2 				"/>
				<polygon class="st9" points="293,443.6 339.3,443.6 325.3,460.9 274,460.9 				"/>
			</g>
		</g>
		<g>
			<circle class="st7" cx="419.8" cy="93.6" r="19.5"/>
			<g>
				<g>
					<path class="st8" d="M419.9,113.6c-11,0-20-9-20-20c0-11,9-20,20-20v0.9c-10.5,0-19.1,8.6-19.1,19.1c0,10.5,8.6,19.1,19.1,19.1
						V113.6z"/>
				</g>
				<g>
					<g>
						<g>
							<path class="st8" d="M419.9,113.6v-0.9c10.5,0,19.1-8.6,19.1-19.1c0-10.5-8.6-19.1-19.1-19.1v-0.9c11,0,20,9,20,20
								C439.9,104.6,430.9,113.6,419.9,113.6z"/>
						</g>
						<g>
							<g>
								<path class="st8" d="M430.1,93.6h-0.9c0-6.5-3.3-15.1-9.6-19.2l0.5-0.7C426.7,77.9,430.1,86.9,430.1,93.6z"/>
							</g>
							<g>
								<path class="st8" d="M420.1,112.9l-0.5-0.7c6.3-4,9.6-12.7,9.6-19.2h0.9C430.1,99.7,426.7,108.7,420.1,112.9z"/>
							</g>
						</g>
						<g>
							<g>
								<path class="st8" d="M410.6,93.6h-0.9c0-6.7,3.4-15.7,10-19.9l0.5,0.7C413.8,78.4,410.6,87.1,410.6,93.6z"/>
							</g>
							<g>
								<path class="st8" d="M419.7,112.9c-6.5-4.2-10-13.2-10-19.9h0.9c0,6.5,3.3,15.1,9.6,19.2L419.7,112.9z"/>
							</g>
						</g>
						<g>
							<rect x="419.5" y="74" class="st8" width="0.9" height="39.1"/>
						</g>
					</g>
				</g>
				<g>
					<g>
						<rect x="403.3" y="82.7" class="st8" width="33.1" height="0.9"/>
					</g>
					<g>
						<rect x="400.4" y="93.5" class="st8" width="39.1" height="0.9"/>
					</g>
					<g>
						<rect x="403.8" y="104.2" class="st8" width="32.2" height="0.9"/>
					</g>
				</g>
			</g>
		</g>
		<g>
			<path class="st9" d="M365.5,200.8c0-11.7-1.7-22.9-5-33.5l29.4-25.9l-18.5-32.1l-37.1,12.6c-15.4-16.4-35.4-28.3-58.1-33.6
				l-7.7-38.4h-37l-7.7,38.4c-22.6,5.3-42.7,17.2-58.1,33.6l-37.1-12.6l-18.5,32.1l29.4,25.9c-3.2,10.6-5,21.9-5,33.5
				c0,11.7,1.7,22.9,5,33.6l-29.4,25.8l18.5,32.1l37.1-12.6c15.4,16.4,35.5,28.3,58.1,33.6l7.7,38.4h37l7.7-38.4
				c22.6-5.3,42.7-17.2,58.1-33.6l37.1,12.6l18.5-32.1l-29.4-25.8C363.8,223.7,365.5,212.5,365.5,200.8z M250,263.1
				c-33.1,0-60-26.9-60-60c0-33.1,26.9-60,60-60c33.1,0,60,26.9,60,60C310,236.3,283.1,263.1,250,263.1z"/>
		</g>
		<g>
			<g>
				<g>
					<g>
						<g>
							<path class="st7" d="M425.2,339.4c-3.1-1.7,0.7-15.9-3.5-22.1c-3-4.5-8.6-7.3-10.6-12.4c-1.7-4.3-0.6-9.5,2.6-12.7
								c0.3-0.3,0.6-0.6,1-0.7c0.4-0.2,0.9-0.1,1.4-0.1c2.7,0.3,5.5,0.7,7.8,2.2c2.8,1.9,4.3,5.2,4.8,8.5
								C429.2,305.4,428.5,341.2,425.2,339.4z"/>
						</g>
						<g>
							<path class="st7" d="M426.6,319.4c0-0.4,0-0.7,0-1.1c-0.1,0.6-0.1,1.1-0.1,1.7L426.6,319.4z"/>
							<path class="st7" d="M436.4,295.8c-0.2-0.2-0.4-0.4-0.6-0.5c-0.3-0.1-0.6-0.1-0.9-0.1c-1.7,0-3.5,0.1-5,1c-1.8,1-3,3-3.5,5.1
								c-0.5,2.1-0.4,4.2-0.3,6.3c0.2,3.6,0.3,7.2,0.5,10.8c0.3-2.7,1.5-5.3,3.4-7.2c2.4-2.5,5.8-4.1,7.4-7.2
								C438.6,301.4,438.3,298,436.4,295.8z"/>
						</g>
					</g>
					<path class="st7" d="M431.3,361.3c0-0.2,0-0.3,0-0.5c-0.8-11.1-2.9-31.5-12.8-41.3c-2.1-2-5.5-3.5-8.5-2.5
						c-1.1,0.4-2,1.1-2.8,1.8c-3.2,3.3-4.2,7.6-4.1,11.8c0.2,5.1,1.8,10.1,4.6,14.6c4,6.2,10.1,11.2,15.2,16.8
						c5.1,5.6-0.4,21.6,7.7,19.3C431.5,381.1,431.3,363.7,431.3,361.3z"/>
					<path class="st7" d="M426.3,369.2c0.2-10.1,0.4-20.2,0.6-30.3c0.2-9.4,0.8-19.6,8.4-26.8c1.9-1.8,4.9-3.5,7.6-2.7
						c1,0.3,1.9,0.9,2.6,1.6c3.1,2.8,4.2,6.8,4.3,10.6c0.1,4.7-1.1,9.3-3.6,13.6c-3.3,5.8-8.8,10.7-13.1,16.1
						c-4.4,5.4,1.4,19.7-6.2,18.1C426.3,369.2,426.3,369.2,426.3,369.2z"/>
				</g>
				<path class="st6" d="M438.8,407.5L438.8,407.5c-7,2.2-14.6,2.2-21.6,0l0,0l-8.5-38.6h38.6L438.8,407.5z"/>
			</g>
			<g>
				<rect x="410.3" y="375.5" class="st8" width="35.2" height="0.8"/>
			</g>
		</g>
	</g>
</g>
<g id="Smartphone_Screen_1_">
	<g id="Smartphone_Screen">
		<g id="_x3C_Group_x3E__1_">
			<g>
				<path class="st3" d="M381.2,319.6h-57.5c-5.5,0-9.5-4.4-9-9.9l10.9-125.1c0.5-5.5,5.3-9.9,10.7-9.9h57.5c5.5,0,9.5,4.4,9,9.9
					L392,309.8C391.5,315.2,386.7,319.6,381.2,319.6z"/>
				<path class="st10" d="M381.2,319.6h-57.5c-5.5,0-9.5-4.4-9-9.9l10.9-125.1c0.5-5.5,5.3-9.9,10.7-9.9h57.5c5.5,0,9.5,4.4,9,9.9
					L392,309.8C391.5,315.2,386.7,319.6,381.2,319.6z"/>
				<path class="st11" d="M357.8,310.4c-0.2,2.6-2.5,4.7-5.1,4.7c-2.6,0-4.5-2.1-4.3-4.7c0.2-2.6,2.5-4.7,5.1-4.7
					C356.2,305.7,358.1,307.8,357.8,310.4z"/>
				<path class="st11" d="M373.5,186h-18.6c-1,0-1.7-0.8-1.6-1.7l0-0.4c0.1-1,0.9-1.7,1.9-1.7h18.6c1,0,1.7,0.8,1.6,1.7l0,0.4
					C375.4,185.2,374.5,186,373.5,186z"/>
				<polygon class="st12" points="387,298.8 320.8,298.8 330.1,192.1 396.4,192.1 				"/>
				<polygon class="st13" points="369.8,175.3 337.8,319.6 357,319.6 388.8,175.3 				"/>
				<polygon class="st13" points="354.8,175.3 322.8,319.6 332.5,319.6 364.2,175.3 				"/>
				<g>
					<polygon class="st3" points="341.9,293 325.5,293 326.5,281.7 342.8,281.7 					"/>
					<polygon class="st3" points="362.6,293 346.3,293 347.2,281.7 363.6,281.7 					"/>
					<polygon class="st3" points="383.4,293 367,293 368,281.7 384.4,281.7 					"/>
				</g>
				<g>
					<polygon class="st3" points="385.9,264.2 328,264.2 327.9,265.2 385.8,265.2 					"/>
					<polygon class="st14" points="385.9,264.2 328,264.2 327.9,265.2 385.8,265.2 					"/>
				</g>
				<g>
					<polygon class="st3" points="386.3,260.3 380.9,260.3 381.4,255 386.7,255 					"/>
					<polygon class="st3" points="360,260.3 354.7,260.3 355.1,255 360.5,255 					"/>
					<polygon class="st3" points="333.7,260.3 328.4,260.3 328.9,255 334.2,255 					"/>
				</g>
				<polygon class="st3" points="385,274.6 369.8,274.6 370.1,271 385.3,271 				"/>
				<g>
					<polygon class="st3" points="367,249.2 329.4,249.2 329.7,245.5 367.3,245.5 					"/>
					<polygon class="st15" points="367,249.2 329.4,249.2 329.7,245.5 367.3,245.5 					"/>
				</g>
				<g>
					<polygon class="st3" points="351.1,199.8 333.7,199.8 334.1,195.9 351.4,195.9 					"/>
					<polygon class="st15" points="351.1,199.8 333.7,199.8 334.1,195.9 351.4,195.9 					"/>
				</g>
				<path class="st3" d="M331.5,277.2L331.5,277.2c-2.5,0-4.4-2.1-4.2-4.6v0c0.2-2.5,2.5-4.6,5-4.6l0,0c2.5,0,4.4,2.1,4.2,4.6v0
					C336.3,275.2,334.1,277.2,331.5,277.2z"/>
				<polygon class="st3" points="387.7,242.5 329.9,242.5 333.4,202.6 391.2,202.6 				"/>
				<path class="st16" d="M325.4,188h21.1c5,0,9.4-4,9.8-9l0.4-4.1h-19.9c-5.6,0-10.6,4.6-11.1,10.2L325.4,188z"/>
			</g>
		</g>
		<g>
			
				<rect x="401.7" y="208.4" transform="matrix(7.219456e-02 -0.9974 0.9974 7.219456e-02 166.518 596.8909)" class="st3" width="4.8" height="1"/>
			
				<rect x="398.1" y="194.8" transform="matrix(7.219101e-02 -0.9974 0.9974 7.219101e-02 181.0618 585.1989)" class="st3" width="14" height="1"/>
		</g>
	</g>
</g>
<g id="Monitor_Screen_1_">
	<g id="Monitor_Screen">
		<g id="_x3C_Group_x3E_">
			<g>
				<g>
					<polygon class="st3" points="344.4,174.9 174.8,174.9 184.2,67.4 353.8,67.4 					"/>
					<path class="st3" d="M342.1,183.3H175c-4.7,0-8.2-3.8-7.8-8.6l9.3-106.9c0.4-4.7,4.6-8.6,9.3-8.6H353c4.7,0,8.2,3.8,7.8,8.6
						l-9.3,106.9C351,179.5,346.8,183.3,342.1,183.3z"/>
				</g>
				<g>
					<polygon class="st3" points="344.4,174.9 174.8,174.9 184.2,67.4 353.8,67.4 					"/>
					<polygon class="st12" points="344.4,174.9 174.8,174.9 184.2,67.4 353.8,67.4 					"/>
				</g>
				<g>
					<polygon class="st3" points="333.4,98.6 302.3,98.6 303.8,81.1 335,81.1 					"/>
				</g>
				<g>
					<polygon class="st3" points="330.4,133.1 299.3,133.1 300.8,115.6 332,115.6 					"/>
				</g>
				<g>
					<polygon class="st3" points="327.4,167.7 296.2,167.7 297.8,150.2 328.9,150.2 					"/>
				</g>
				<g>
					<polygon class="st3" points="193.7,154.3 193.6,155.3 283.4,155.3 283.5,154.3 					"/>
					<polygon class="st14" points="283.5,154.3 193.7,154.3 193.6,155.3 283.4,155.3 					"/>
				</g>
				<g>
					<polygon class="st13" points="205.3,59.3 172.2,183.3 183.3,183.3 216.1,59.3 					"/>
					<polygon class="st13" points="222.5,59.3 189.4,183.3 211.5,183.3 244.2,59.3 					"/>
				</g>
				<polygon class="st3" points="284.5,142.8 194.8,142.8 200.2,80.8 290,80.8 				"/>
				<path class="st3" d="M197.2,167.3L197.2,167.3c-2.5,0-4.4-2.1-4.2-4.6l0,0c0.2-2.5,2.5-4.6,5-4.6l0,0c2.5,0,4.4,2.1,4.2,4.6l0,0
					C202,165.2,199.8,167.3,197.2,167.3z"/>
				<g>
					<polygon class="st3" points="239,150.5 194.1,150.5 194.4,146.5 239.3,146.5 					"/>
					<polygon class="st15" points="239,150.5 194.1,150.5 194.4,146.5 239.3,146.5 					"/>
				</g>
				<polygon class="st3" points="282.6,164.7 265.2,164.7 265.6,160.7 282.9,160.7 				"/>
				<g>
					<polygon class="st3" points="283.9,150.5 279.9,150.5 280.3,146.5 284.2,146.5 					"/>
					<polygon class="st3" points="277.2,150.5 273.2,150.5 273.5,146.5 277.5,146.5 					"/>
					<polygon class="st3" points="270.4,150.5 266.5,150.5 266.8,146.5 270.8,146.5 					"/>
				</g>
				<polygon class="st17" points="290.3,77 223,77 223.3,73.6 290.6,73.6 				"/>
				<g>
					<polygon class="st3" points="217.6,77.3 200.3,77.3 200.7,73.3 218,73.3 					"/>
					<polygon class="st15" points="217.6,77.3 200.3,77.3 200.7,73.3 218,73.3 					"/>
				</g>
			</g>
		</g>
		<g>
			
				<rect x="336.8" y="54.1" transform="matrix(8.364443e-03 -1 1 8.364443e-03 277.9711 393.3108)" class="st3" width="1" height="4.8"/>
			
				<rect x="323.1" y="49.4" transform="matrix(8.358307e-03 -1 1 8.358307e-03 264.5016 379.5026)" class="st3" width="1" height="14"/>
		</g>
	</g>
</g>
<g id="Drawing_Table_1_">
	<g id="Drawing_Table">
		<g>
			<g>
				<polygon class="st18" points="281.1,204.1 286.5,204.1 276.5,314.2 271.4,314.2 				"/>
				<polygon class="st15" points="281.1,204.1 286.5,204.1 276.5,314.2 271.4,314.2 				"/>
			</g>
			<g>
				
					<rect x="283" y="256.9" transform="matrix(0.9914 -0.1308 0.1308 0.9914 -34.6896 39.5376)" class="st18" width="1" height="53.8"/>
			</g>
			<g>
				<polygon class="st3" points="273.9,308.3 107.2,308.3 116.4,204.1 283.1,204.1 				"/>
				<polygon class="st19" points="273.9,308.3 107.2,308.3 116.4,204.1 283.1,204.1 				"/>
			</g>
			<g>
				<polygon class="st18" points="143.8,320.8 150.7,320.8 161.9,467.2 157,467.2 				"/>
				<polygon class="st18" points="309.6,319.8 316.5,319.8 327.7,467.2 322.7,467.2 				"/>
				<rect x="108.6" y="319.8" class="st3" width="205.8" height="23.2"/>
				<polygon class="st16" points="278.3,320 277.5,343 314.4,343 314.4,319.8 				"/>
				<rect x="108.7" y="320" class="st14" width="166.5" height="23.2"/>
				<polygon class="st18" points="113.2,319.8 106.3,319.8 106.1,467.2 111.1,467.2 				"/>
				<polygon class="st18" points="279,319.8 272.1,319.8 271.9,467.2 276.8,467.2 				"/>
				<polygon class="st15" points="106.3,319.8 106.1,467.2 111.1,467.2 113.2,319.8 				"/>
				<polygon class="st20" points="279,319.8 272.1,319.8 271.9,467.2 276.8,467.2 				"/>
				<path class="st18" d="M100.5,314.2L100.5,314.2c0-3.1,1.2-5.7,2.6-5.7h216.5c1.4,0,2.6,2.5,2.6,5.7l0,0c0,3.1-1.2,5.7-2.6,5.7
					H103.1C101.7,319.9,100.5,317.4,100.5,314.2z"/>
				<path class="st20" d="M100.5,314.2L100.5,314.2c0-3.1,1.2-5.7,2.6-5.7h216.5c1.4,0,2.6,2.5,2.6,5.7l0,0c0,3.1-1.2,5.7-2.6,5.7
					H103.1C101.7,319.9,100.5,317.4,100.5,314.2z"/>
				<path class="st18" d="M266.3,314.2L266.3,314.2c0-3.1,1.2-5.7,2.6-5.7h50.7c1.4,0,2.6,2.5,2.6,5.7l0,0c0,3.1-1.2,5.7-2.6,5.7
					h-50.7C267.5,319.9,266.3,317.4,266.3,314.2z"/>
			</g>
		</g>
		<g>
			<g>
				<g>
					<polygon class="st8" points="263.3,294.9 212.9,294.9 220,213.6 270.4,213.6 					"/>
					<path class="st8" d="M263.8,295.4h-51.5l7.2-82.3H271L263.8,295.4z M213.4,294.4h49.5l7-80.3h-49.5L213.4,294.4z"/>
				</g>
				<g>
					<g>
						<g>
							<path class="st9" d="M229.4,291.3h-12.3l0.8-8.6h12.3L229.4,291.3z M217.6,290.8h11.3l0.7-7.6h-11.3L217.6,290.8z"/>
						</g>
						<g>
							<path class="st9" d="M244.3,291.3H232l0.8-8.6h12.3L244.3,291.3z M232.6,290.8h11.3l0.7-7.6h-11.3L232.6,290.8z"/>
						</g>
						<g>
							<path class="st9" d="M259.3,291.3H247l0.8-8.6H260L259.3,291.3z M247.5,290.8h11.3l0.7-7.6h-11.3L247.5,290.8z"/>
						</g>
					</g>
					<g>
						<rect x="219.1" y="270.3" class="st9" width="41.7" height="0.5"/>
					</g>
					<g>
						<path class="st9" d="M247.6,258.7H220l0.3-3.2h27.6L247.6,258.7z M220.5,258.2h26.6l0.2-2.2h-26.6L220.5,258.2z"/>
					</g>
					<g>
						<path class="st9" d="M260.4,279h-11.4l0.3-3.1h11.4L260.4,279z M249.5,278.5h10.4l0.2-2.1h-10.4L249.5,278.5z"/>
					</g>
					<g>
						<g>
							<path class="st9" d="M261.4,266.7h-4.3l0.4-4.3h4.3L261.4,266.7z M257.6,266.2h3.3l0.3-3.3h-3.3L257.6,266.2z"/>
						</g>
						<g>
							<path class="st9" d="M242.5,266.7h-4.3l0.4-4.3h4.3L242.5,266.7z M238.7,266.2h3.3l0.3-3.3H239L238.7,266.2z"/>
						</g>
						<g>
							<path class="st9" d="M223.6,266.7h-4.3l0.4-4.3h4.3L223.6,266.7z M219.8,266.2h3.3l0.3-3.3h-3.3L219.8,266.2z"/>
						</g>
					</g>
					<g>
						<path class="st9" d="M236.3,221.1h-13l0.3-3.4h13L236.3,221.1z M223.8,220.6h12l0.2-2.4h-12L223.8,220.6z"/>
					</g>
					<g>
						<path class="st9" d="M222.3,279.9h-1.1c-0.8,0-1.5-0.3-2.1-0.9c-0.5-0.6-0.8-1.3-0.7-2.2l0.1-1.1c0.1-1.7,1.6-3,3.3-3h1.1
							c0.8,0,1.5,0.3,2.1,0.9c0.5,0.6,0.8,1.3,0.7,2.1l-0.1,1.1C225.4,278.5,223.9,279.9,222.3,279.9z M221.7,273.3
							c-1.4,0-2.6,1.1-2.8,2.5l-0.1,1.1c-0.1,0.7,0.1,1.3,0.6,1.8c0.4,0.5,1,0.7,1.7,0.7h1.1c1.4,0,2.6-1.1,2.8-2.5l0.1-1.1
							c0.1-0.7-0.1-1.3-0.6-1.8c-0.4-0.5-1-0.7-1.7-0.7H221.7z"/>
					</g>
					<g>
						<path class="st9" d="M262.6,252.8h-42.1l0-0.3l2.5-29h42.1l0,0.3L262.6,252.8z M221,252.3h41.1l2.5-28.2h-41.1L221,252.3z"/>
					</g>
				</g>
			</g>
			<g>
				<g>
					
						<rect x="242.6" y="214" transform="matrix(0.5923 -0.8057 0.8057 0.5923 -92.9473 292.757)" class="st9" width="0.5" height="48.5"/>
				</g>
				<g>
					
						<rect x="218.5" y="244.7" transform="matrix(0.838 -0.5457 0.5457 0.838 -95.9737 166.5608)" class="st9" width="28.1" height="0.5"/>
				</g>
				<g>
					<polygon class="st9" points="229,291.2 217.9,283.1 218.2,282.7 229.3,290.8 					"/>
				</g>
				<g>
					
						<rect x="216.1" y="286.7" transform="matrix(0.838 -0.5456 0.5456 0.838 -120.3447 168.4836)" class="st9" width="14.9" height="0.5"/>
				</g>
				<g>
					<polygon class="st9" points="243.9,291.2 232.9,283.1 233.2,282.7 244.2,290.8 					"/>
				</g>
				<g>
					
						<rect x="231.1" y="286.7" transform="matrix(0.8379 -0.5458 0.5458 0.8379 -117.9404 176.7043)" class="st9" width="14.9" height="0.5"/>
				</g>
				<g>
					<polygon class="st9" points="258.9,291.2 247.8,283.1 248.1,282.7 259.2,290.8 					"/>
				</g>
				<g>
					
						<rect x="246.1" y="286.7" transform="matrix(0.8379 -0.5458 0.5458 0.8379 -115.5161 184.8681)" class="st9" width="14.9" height="0.5"/>
				</g>
			</g>
		</g>
		<g>
			<g>
				<g>
					<polygon class="st8" points="206.5,277.3 113.3,277.3 118.9,213.8 212.1,213.8 					"/>
					<path class="st8" d="M207,277.8h-94.2l5.6-64.5h94.2L207,277.8z M113.8,276.8h92.2l5.5-62.5h-92.2L113.8,276.8z"/>
				</g>
				<g>
					<g>
						<rect x="124.1" y="266" class="st9" width="50.6" height="0.5"/>
					</g>
					<g>
						<g>
							<path class="st9" d="M175.8,256.8h-51.1l0-0.3l3.1-35.1h51.1l0,0.3L175.8,256.8z M125.3,256.3h50.1l3-34.4h-50.1L125.3,256.3
								z"/>
						</g>
					</g>
					<g>
						<path class="st9" d="M126.9,273.5h-1.4c-0.6,0-1.1-0.2-1.5-0.6c-0.4-0.4-0.6-1-0.5-1.5l0.1-1.4c0.1-1.2,1.1-2.1,2.3-2.1h1.4
							c0.6,0,1.1,0.2,1.5,0.6c0.4,0.4,0.6,1,0.5,1.5l-0.1,1.4C129.1,272.6,128,273.5,126.9,273.5z M125.9,268.4
							c-0.9,0-1.7,0.8-1.8,1.7l-0.1,1.4c0,0.4,0.1,0.9,0.4,1.2c0.3,0.3,0.7,0.5,1.1,0.5h1.4c0.9,0,1.7-0.8,1.8-1.7l0.1-1.4
							c0-0.4-0.1-0.9-0.4-1.2c-0.3-0.3-0.7-0.5-1.1-0.5H125.9z"/>
					</g>
					<g>
						<path class="st9" d="M150,263.1h-25.8l0.2-2.7h25.8L150,263.1z M124.8,262.6h24.8l0.2-1.7h-24.8L124.8,262.6z"/>
					</g>
					<g>
						<path class="st9" d="M174.5,272.1h-10.3l0.2-2.7h10.3L174.5,272.1z M164.7,271.6h9.3l0.2-1.7h-9.3L164.7,271.6z"/>
					</g>
					<g>
						<g>
							<path class="st9" d="M175.3,263.1h-2.7l0.2-2.7h2.7L175.3,263.1z M173.1,262.6h1.7l0.2-1.7h-1.7L173.1,262.6z"/>
						</g>
						<g>
							<path class="st9" d="M171.5,263.1h-2.7l0.2-2.7h2.7L171.5,263.1z M169.3,262.6h1.7l0.2-1.7h-1.7L169.3,262.6z"/>
						</g>
						<g>
							<path class="st9" d="M167.7,263.1H165l0.2-2.7h2.7L167.7,263.1z M165.5,262.6h1.7l0.2-1.7h-1.7L165.5,262.6z"/>
						</g>
					</g>
					<g>
						<path class="st9" d="M179.2,218.7h-38.4l0.2-2.4h38.4L179.2,218.7z M141.3,218.2h37.4l0.1-1.4h-37.4L141.3,218.2z"/>
					</g>
					<g>
						<path class="st9" d="M138.3,218.9H128l0.2-2.7h10.3L138.3,218.9z M128.5,218.4h9.3l0.2-1.7h-9.3L128.5,218.4z"/>
					</g>
					<g>
						<g>
							<path class="st9" d="M203.3,232.9h-18l0.9-10.4h18L203.3,232.9z M185.8,232.4h17l0.8-9.4h-17L185.8,232.4z"/>
						</g>
						<g>
							<path class="st9" d="M201.6,252.3h-18l0.9-10.4h18L201.6,252.3z M184.1,251.8h17l0.8-9.4h-17L184.1,251.8z"/>
						</g>
						<g>
							<path class="st9" d="M199.9,271.8h-18l0.9-10.4h18L199.9,271.8z M182.4,271.3h17l0.8-9.4h-17L182.4,271.3z"/>
						</g>
					</g>
				</g>
			</g>
			<g>
				
					<rect x="184.3" y="227.4" transform="matrix(0.8811 -0.473 0.473 0.8811 -84.5207 119.1693)" class="st9" width="20.9" height="0.5"/>
			</g>
			<g>
				<polygon class="st9" points="202.9,232.8 186.3,222.9 186.5,222.5 203.2,232.4 				"/>
			</g>
			<g>
				
					<rect x="182.6" y="246.9" transform="matrix(0.8817 -0.4719 0.4719 0.8817 -93.7731 120.3293)" class="st9" width="20.9" height="0.5"/>
			</g>
			<g>
				
					<rect x="192.8" y="237.4" transform="matrix(0.5092 -0.8607 0.8607 0.5092 -117.953 287.4221)" class="st9" width="0.5" height="19.4"/>
			</g>
			<g>
				<path class="st9" d="M181.8,272l0.9-10.7l8.6,5.1l9.1-4.9l0.2,0.4l-8.8,4.7l8,4.7l-0.3,0.4l-8.2-4.9L181.8,272z M183.2,262.1
					l-0.8,9l8.4-4.5L183.2,262.1z"/>
			</g>
			<g>
				<g>
					
						<rect x="119.9" y="238.8" transform="matrix(0.838 -0.5456 0.5456 0.838 -105.8448 121.5861)" class="st9" width="64" height="0.5"/>
				</g>
				<g>
					
						<rect x="151.6" y="209.6" transform="matrix(0.5923 -0.8057 0.8057 0.5923 -130.7045 219.8239)" class="st9" width="0.5" height="59"/>
				</g>
			</g>
		</g>
	</g>
</g>
<g id="Character_1_">
	<g id="Character">
		<path class="st21" d="M182.6,434.3l-1.1,24.4c0,0,9,2.8,9.9-0.9c0.6-2.3,2.3-10.2,3.8-16.4c0.6-2.4,0-4.6-1.2-5.5
			C192,434.4,188.6,434.4,182.6,434.3z"/>
		<path class="st21" d="M126.7,433l-9.3,18.4c0,0,5.3,6.7,7.6,4c3-3.7,12.8-15.7,12.8-15.7S141.1,440.3,126.7,433z"/>
		<polygon class="st14" points="122.3,441.8 132.6,446.1 136.8,441 124.9,436.6 		"/>
		<polygon class="st14" points="182.2,443.3 182,448.9 193.4,448.9 194.8,443.3 		"/>
		<g>
			<path class="st21" d="M122.8,291l4.4,5.2l5.4-3.9c0,0-1.8-7.8-2.6-7.2c-0.8,0.6-7.2,4.9-7.2,4.9V291z"/>
			<path class="st14" d="M122.8,291l4.4,5.2l5.4-3.9c0,0-1.8-7.8-2.6-7.2c-0.8,0.6-7.2,4.9-7.2,4.9V291z"/>
		</g>
		<g>
			<g>
				<path class="st21" d="M127.1,224.1l-19.6,17.7c-2.5,2.8-3,6.9-1.2,10.2c4.9,9,16.5,27.1,16.5,27.1l5.7-4.1
					c0,0-6.8-20.2-9.6-24.5c-0.2-0.3-0.1-0.6,0.1-0.8l16.6-13.7L127.1,224.1z"/>
			</g>
			<g class="st14">
				<path d="M127.1,224.1l-19.6,17.7c-2.5,2.8-3,6.9-1.2,10.2c4.9,9,16.5,27.1,16.5,27.1l5.7-4.1c0,0-6.8-20.2-9.6-24.5
					c-0.2-0.3-0.1-0.6,0.1-0.8l16.6-13.7L127.1,224.1z"/>
			</g>
			<path class="st21" d="M122.8,279v10.9l8-5.4c0,0,0.5-9.2-2.3-9.5L122.8,279z"/>
			<path class="st14" d="M122.8,279v10.9l8-5.4c0,0,0.5-9.2-2.3-9.5L122.8,279z"/>
		</g>
		<g>
			<path class="st3" d="M168.1,367.5c-0.2,4.8-0.7,9.7-1.8,14.3c-5.7,24.1-28.2,58.6-28.2,58.6l-13.1-4.9c0,0,18.6-50,20.7-62.8
				c1.7-10.4-14.3-48.4-18.9-63.8c-3.4-11.2,1.4-21.6,1.4-21.6s12.1,1.6,26.4,2.5l5.6,25.9l2.6,12c0,0,2.7,8.7,4.3,20.4
				c0,0.3,0.1,0.6,0.1,0.9c0.1,0.8,0.2,1.6,0.3,2.3C167.9,356.5,168.2,361.9,168.1,367.5z"/>
			<path class="st12" d="M168.1,367.5c-0.2,4.8-0.7,9.7-1.8,14.3c-5.7,24.1-28.2,58.6-28.2,58.6l-13.1-4.9c0,0,18.6-50,20.7-62.8
				c1.7-10.4-14.3-48.4-18.9-63.8c-3.4-11.2,1.4-21.6,1.4-21.6s12.1,1.6,26.4,2.5l5.6,25.9l2.6,12c0,0,2.7,8.7,4.3,20.4
				c0,0.3,0.1,0.6,0.1,0.9c0.1,0.8,0.2,1.6,0.3,2.3C167.9,356.5,168.2,361.9,168.1,367.5z"/>
		</g>
		<path class="st22" d="M168.1,367.5c-1.9-6.4-9.5-25.4-19.5-44.2c-10.1-19,1-23.6,1-23.6c4.2,1.5,7.7,7.9,10.5,16.1
			c3.3,9.7,5.6,22.1,6.9,32.4c0,0.3,0.1,0.6,0.1,0.9c0.1,0.8,0.2,1.6,0.3,2.3C167.9,356.5,168.2,361.9,168.1,367.5z"/>
		<g>
			<g>
				<path class="st3" d="M177.2,293.3l-34.2-2.6c0,0-2.3,7.9-2.3,13.6c0,20.8,14.7,19.8,19.2,30.2c10,23.1,19.1,37.2,20.2,43.7
					c0.9,5.1,1,68.5,1,68.5h13.3c0,0,11.7-49.6,9.5-69.7C201.8,356.8,177.2,293.3,177.2,293.3z"/>
			</g>
			<g class="st23">
				<path class="st8" d="M177.2,293.3l-34.2-2.6c0,0-2.3,7.9-2.3,13.6c0,20.8,14.7,19.8,19.2,30.2c10,23.1,19.1,37.2,20.2,43.7
					c0.9,5.1,1,68.5,1,68.5h13.3c0,0,11.7-49.6,9.5-69.7C201.8,356.8,177.2,293.3,177.2,293.3z"/>
			</g>
		</g>
		<path class="st3" d="M223.3,225.6l19.8,10c0.1,0.1,0.2,0.1,0.3,0.2l1.3,1.5l-1.8-0.1c-0.1,0-0.2,0-0.3-0.1l-20.2-9.4
			c-0.4-0.2-0.6-0.7-0.4-1.1l0.2-0.5C222.3,225.6,222.8,225.4,223.3,225.6z"/>
		<path id="_x3C_Path_x3E__9_" class="st21" d="M226.9,234.1l6.4-3.4l-1.1,9.2c0,0-5.2,3.1-8.4-0.1L226.9,234.1z"/>
		<path id="_x3C_Path_x3E__1_" class="st21" d="M240.4,234.3l-0.5,2.9c-0.2,0.9-0.9,1.7-1.9,1.8l-5.9,0.8l1.1-9.2l5.5,1.2
			C239.9,232.1,240.6,233.2,240.4,234.3z"/>
		<path class="st21" d="M178.4,233.7c0,0,5.2,26.1,17.1,30.4c10.7,3.9,32.3-23,32.3-23l-0.9-7.1l-27,17.5L189,224.1
			C189,224.1,184.1,227.9,178.4,233.7z"/>
		<g>
			<path class="st3" d="M128.6,457.4c-0.8-0.6-1.5-1.3-2.2-2c-0.1-0.1-0.1-0.2,0-0.3c0-0.1,0.1-0.1,0.2-0.1c0.5,0.1,4.7,0.8,5.3,1.9
				c0.1,0.2,0.1,0.5-0.1,0.7c-0.2,0.4-0.6,0.6-1,0.6C130,458.2,129.2,457.9,128.6,457.4z M127.2,455.5c1.5,1.5,2.8,2.3,3.6,2.3
				c0.3,0,0.5-0.2,0.7-0.4c0.1-0.1,0.1-0.2,0-0.3C131.2,456.5,128.9,455.9,127.2,455.5z"/>
			<path class="st3" d="M126.4,455.4c0,0-0.1-0.1-0.1-0.1c0-0.1,0-0.2,0-0.2c0.1-0.1,2.7-3,4.5-1.8l0.2,0.1c0.5,0.4,0.4,0.8,0.3,1
				C130.8,455.3,127.8,455.7,126.4,455.4L126.4,455.4z M130.6,453.7c-1.1-0.8-2.8,0.7-3.6,1.4c1.4,0.1,3.6-0.3,3.9-0.9
				c0,0,0.1-0.2-0.2-0.4L130.6,453.7z"/>
		</g>
		<path class="st18" d="M116.5,450.6l-4.5,8c-0.4,0.7-0.1,1.6,0.6,2c2.4,1.4,5.7,3.4,7.1,4.1c7.3,3.3,11.7,2.4,15.8,2.3
			c1.4,0,2.3-1.6,1.9-2.9l-0.2-0.6c-0.2-0.5-0.5-0.9-1.1-1.1c-6-1.6-9.5-8.2-9.5-8.2l-8.4-4.1C117.7,449.7,116.9,450,116.5,450.6z"
			/>
		<g>
			<path class="st3" d="M194.3,460.3c-0.9-0.3-1.8-0.8-2.7-1.3c-0.1,0-0.1-0.1-0.1-0.2c0-0.1,0.1-0.2,0.2-0.2
				c0.5-0.1,4.8-0.6,5.6,0.3c0.2,0.2,0.2,0.4,0.1,0.7c-0.1,0.4-0.4,0.7-0.8,0.9C195.9,460.7,195.1,460.6,194.3,460.3z M192.4,458.9
				c1.9,1,3.4,1.4,4.1,1.2c0.3-0.1,0.4-0.3,0.5-0.6c0-0.1,0-0.2,0-0.3C196.5,458.7,194.2,458.7,192.4,458.9z"/>
			<path class="st3" d="M191.4,459.2c0,0-0.1,0-0.1-0.1c0-0.1-0.1-0.2,0-0.2c0-0.2,1.7-3.7,3.8-3l0.2,0.1c0.6,0.3,0.6,0.6,0.6,0.9
				C195.6,457.9,192.8,459,191.4,459.2L191.4,459.2z M194.9,456.3c-1.3-0.5-2.5,1.5-3,2.4c1.3-0.3,3.3-1.3,3.5-1.9
				c0,0,0.1-0.2-0.3-0.4L194.9,456.3z"/>
		</g>
		<path class="st18" d="M180.1,460.6c-0.1,1.7-0.1,4.3,0,7c0,1.3,0.8,3.5,2,4c1.9,0.7,4.9,0.5,8.3-0.1c4.5-0.7,11.9-4.6,14.9-6.2
			c1.2-0.6,1.7-2.1,1.1-3.3c-0.1-0.3-0.3-0.5-0.4-0.7c-0.2-0.3-0.5-0.5-0.8-0.5c-4.1,0.1-4.7-0.1-8.5-0.1c-3.8,0-5.4-2.7-5.4-2.7
			s-4.6,1.4-8.2,0.7C179.6,458,180.1,460.6,180.1,460.6z"/>
		<path class="st3" d="M145.8,209.4c-3.8,1.6-7.6,3.5-11.2,5.7c-3.4,2-6.8,4.4-9.3,7.5c-0.6,0.8-1.2,1.7-1.1,2.6
			c0.1,0.6,0.4,1.1,0.7,1.6c3,4.7,7,8.9,11.6,12.1c1.1-6.8,3.5-13.5,7-19.4c1.7-2.9,3.7-5.8,4-9.1L145.8,209.4z"/>
		<g>
			<path class="st24" d="M196.4,189.6c-0.1,2.2,0.1,4.4,0.6,6.5c-1.5,0.5-3.1-0.8-3.1-0.8L196.4,189.6z"/>
			<g>
				<g>
					<path d="M195.3,195.3c-0.3,0-0.5,0-0.8-0.1c-1.8-0.5-2.7-2.9-2-5.2c0.7-2.4,2.7-3.8,4.5-3.3c0.9,0.3,1.6,1,2,2
						c0.3,1,0.3,2.1,0,3.2C198.4,193.9,196.9,195.3,195.3,195.3z M196.3,187.1c-1.4,0-2.7,1.2-3.3,3.1c-0.6,2.1,0.1,4.2,1.7,4.6
						c0.2,0.1,0.4,0.1,0.6,0.1c1.4,0,2.8-1.3,3.3-3.1c0.3-1,0.3-2,0-2.9c-0.3-0.9-0.9-1.5-1.6-1.7
						C196.7,187.1,196.5,187.1,196.3,187.1z"/>
				</g>
			</g>
			<path class="st21" d="M171.3,188.3l3.3,6.8l4.5,9.3c-0.8,0.6-1.5,1.4-2.1,2.3c-1.3,1.9-2.3,3.3,1.6,6.9c0.9,0.7,1.2,1.9,0.9,3
				c-0.4,1.3-1.9,2.4-6.5,1c-4.4-1.4-8.2-4.2-10.9-8c-1.3-1.8-0.8-2.9,0.8-4.3C168,201.3,170.1,194.1,171.3,188.3z"/>
			<path class="st21" d="M193.5,198.8c-2.4,3.7-6.2,5.7-10.1,6c-1.4,0.1-2.8,0-4.1-0.3c-3.1-0.8-5.8-2.9-7.5-6.3
				c-2.9-6-0.9-11.1,1.6-20c0.5-1.8,1.4-3.5,2.6-4.9c4.6-5.4,12.7-6.1,18.2-1.5C201.6,178.2,198.2,191.6,193.5,198.8z"/>
			<path class="st14" d="M183.4,204.8c-1.4,0.1-2.8,0-4.1-0.3l-0.1-0.1l1.4-1.4C180.5,203,180.6,204.5,183.4,204.8z"/>
			<g>
				<g>
					<path class="st18" d="M179.4,167c-0.6-1.4-2-2.3-3.6-2.1c1.1,0.7,1.9,1.8,2.4,3L179.4,167z"/>
				</g>
				<path class="st18" d="M206.9,181.6c-2.3,2.5-8.4,1.4-8.4,1.4l-2.5-2.5c-0.6-0.5-1.8-1.1-2.6,1.8l-1.1,2.5c0,0-2.9,4.8-7.3,7.1
					c-0.6,0.3-2.4,1.5-2.4,1.5c-3.1,2-6.9,2.1-10.1,0.4l-1.2-0.5c-1.2-0.5-2-1.6-2.1-2.9c-0.3-4.9-0.5-17.1,3.5-21
					c3.7-3.6,5.7-2.5,7-2.8c0.8-0.2,4.5-2.7,9.8-0.9c9.9,3.4,9.5,9.2,11.5,8.9c1.9-0.3,3-1.5,3.1-1.7c-0.2,0.3-2.3,3.7-1.3,3.8
					c1,0.1,3.7-2.2,3.5-1.6c-0.2,0.7-3.1,3.7-1.4,4.4c1.6,0.7,4.2-1.7,4.2-1.7S209.2,179.1,206.9,181.6z"/>
			</g>
			<g>
				<rect x="193.4" y="180.2" transform="matrix(0.5481 -0.8364 0.8364 0.5481 -69.1854 246.5966)" width="0.5" height="14.3"/>
			</g>
			<path class="st21" d="M182.9,186.5c-0.2,2.1,0.3,4.2,1.6,5.8c1.6,2.2,4.3,0.7,5.1-1.8c0.7-2.3,0.2-5.8-2-7.1
				C185.5,182.2,183.2,183.9,182.9,186.5z"/>
		</g>
		<g>
			<g>
				<path class="st18" d="M145.8,209.4c0,0-9.5,11.2-12.6,37.2c-3.1,26-5.6,43.4-5.6,43.4l50,3.6c0,0-1.9-16.7,0-29.5
					c1.9-12.8,14.7-43.4,11.8-48.3c-1.4-2.5-12.3-7.3-22.5-8C157,207,145.8,209.4,145.8,209.4z"/>
			</g>
		</g>
		<path class="st3" d="M177,214.8c-2.6,2.4-4.1,5.8-5.2,9.1c-0.4,1.4-0.8,2.9-0.7,4.3c0.1,1.9,1,3.7,1.9,5.4c1.6,3,3.1,5.9,4.7,8.9
			c5.7-0.2,11.4-1.5,16.7-3.7c0.7-0.3,1.4-0.6,1.7-1.3c0.5-1.2-2.6-10.7-3-14.4C192.1,215.1,184,208.4,177,214.8z"/>
		<path class="st3" d="M157,207.8l4.1-3.2c1-0.8,2.2-1.1,3.4-1.1c2.9,0.2,8.6,0.2,13.5,2c4.4,1.7,3.5,5.4,3.5,5.4
			S173.1,207.6,157,207.8z"/>
		<path class="st3" d="M128.4,284.9c-2.8,3.1-2.8,12.5-2.8,12.5s25.8,2.5,37.3,2.5c7.2,0,13.2-0.9,13.2-0.9l0.8-5.6l1.6,5.2l2.3-0.5
			l-3.6-10.8L128.4,284.9z"/>
		<path class="st3" d="M141.1,440.5c0.1,0-2.8,5-2.8,5l-16.1-6.3l1.4-4.9L141.1,440.5z"/>
		<path class="st3" d="M197.6,441.2c0.1,0-1,5.4-1,5.4h-17.1l-0.5-5L197.6,441.2z"/>
	</g>
</g>
</svg>
